UbuntuSansMono-Thin.ufo
<glyph name="parenleft" format="2">
  <advance width="560"/>
  <unicode hex="0028"/>
  <outline>
    <contour>
      <point x="386" y="-185" type="curve"/>
      <point x="410" y="-160" type="line"/>
      <point x="258" y="-17"/>
      <point x="196" y="114"/>
      <point x="196" y="299" type="curve" smooth="yes"/>
      <point x="196" y="481"/>
      <point x="258" y="612"/>
      <point x="410" y="758" type="curve"/>
      <point x="386" y="783" type="line"/>
      <point x="225" y="632"/>
      <point x="160" y="494"/>
      <point x="160" y="299" type="curve" smooth="yes"/>
      <point x="160" y="104"/>
      <point x="225" y="-34"/>
    </contour>
  </outline>
</glyph>
<glyph name="three" format="2">
  <advance width="560"/>
  <unicode hex="0033"/>
  <outline>
    <contour>
      <point x="235" y="-15" type="curve" smooth="yes"/>
      <point x="392" y="-15"/>
      <point x="471" y="65"/>
      <point x="471" y="188" type="curve" smooth="yes"/>
      <point x="471" y="287"/>
      <point x="421" y="350"/>
      <point x="309" y="374" type="curve"/>
      <point x="392" y="393"/>
      <point x="436" y="452"/>
      <point x="436" y="536" type="curve" smooth="yes"/>
      <point x="436" y="645"/>
      <point x="368" y="706"/>
      <point x="249" y="706" type="curve" smooth="yes"/>
      <point x="189" y="706"/>
      <point x="135" y="688"/>
      <point x="92" y="656" type="curve"/>
      <point x="108" y="628" type="line"/>
      <point x="151" y="659"/>
      <point x="199" y="674"/>
      <point x="246" y="674" type="curve" smooth="yes"/>
      <point x="345" y="674"/>
      <point x="400" y="623"/>
      <point x="400" y="531" type="curve" smooth="yes"/>
      <point x="400" y="439"/>
      <point x="335" y="386"/>
      <point x="222" y="386" type="curve" smooth="yes"/>
      <point x="211" y="386" type="line"/>
      <point x="211" y="356" type="line"/>
      <point x="219" y="356" type="line"/>
      <point x="363" y="354"/>
      <point x="435" y="297"/>
      <point x="435" y="184" type="curve" smooth="yes"/>
      <point x="435" y="65"/>
      <point x="336" y="17"/>
      <point x="236" y="17" type="curve" smooth="yes"/>
      <point x="180" y="17"/>
      <point x="126" y="31"/>
      <point x="83" y="55" type="curve"/>
      <point x="73" y="22" type="line"/>
      <point x="120" y="-2"/>
      <point x="178" y="-15"/>
    </contour>
  </outline>
</glyph>
<glyph name="eight" format="2">
  <advance width="560"/>
  <unicode hex="0038"/>
  <outline>
    <contour>
      <point x="281" y="-15" type="curve" smooth="yes"/>
      <point x="403" y="-15"/>
      <point x="484" y="60"/>
      <point x="484" y="172" type="curve" smooth="yes"/>
      <point x="484" y="251"/>
      <point x="440" y="308"/>
      <point x="351" y="343" type="curve"/>
      <point x="424" y="384"/>
      <point x="468" y="453"/>
      <point x="468" y="529" type="curve" smooth="yes"/>
      <point x="468" y="636"/>
      <point x="397" y="706"/>
      <point x="281" y="706" type="curve" smooth="yes"/>
      <point x="164" y="706"/>
      <point x="92" y="637"/>
      <point x="92" y="528" type="curve" smooth="yes"/>
      <point x="92" y="455"/>
      <point x="127" y="403"/>
      <point x="207" y="364" type="curve"/>
      <point x="112" y="317"/>
      <point x="76" y="263"/>
      <point x="76" y="172" type="curve" smooth="yes"/>
      <point x="76" y="56"/>
      <point x="157" y="-15"/>
    </contour>
    <contour>
      <point x="281" y="17" type="curve" smooth="yes"/>
      <point x="177" y="17"/>
      <point x="112" y="78"/>
      <point x="112" y="174" type="curve" smooth="yes"/>
      <point x="112" y="255"/>
      <point x="156" y="314"/>
      <point x="244" y="349" type="curve"/>
      <point x="346" y="315"/>
      <point x="448" y="283"/>
      <point x="448" y="174" type="curve" smooth="yes"/>
      <point x="448" y="78"/>
      <point x="382" y="17"/>
    </contour>
    <contour>
      <point x="317" y="355" type="curve"/>
      <point x="182" y="404"/>
      <point x="128" y="442"/>
      <point x="128" y="527" type="curve" smooth="yes"/>
      <point x="128" y="616"/>
      <point x="189" y="674"/>
      <point x="281" y="674" type="curve" smooth="yes"/>
      <point x="378" y="674"/>
      <point x="432" y="622"/>
      <point x="432" y="529" type="curve" smooth="yes"/>
      <point x="432" y="458"/>
      <point x="394" y="400"/>
    </contour>
  </outline>
</glyph>
<glyph name="question" format="2">
  <advance width="560"/>
  <unicode hex="003F"/>
  <outline>
    <contour>
      <point x="228" y="189" type="curve"/>
      <point x="259" y="189" type="line"/>
      <point x="259" y="425"/>
      <point x="434" y="400"/>
      <point x="434" y="559" type="curve" smooth="yes"/>
      <point x="434" y="650"/>
      <point x="366" y="706"/>
      <point x="258" y="706" type="curve" smooth="yes"/>
      <point x="215" y="706"/>
      <point x="158" y="695"/>
      <point x="130" y="678" type="curve"/>
      <point x="142" y="648" type="line"/>
      <point x="169" y="663"/>
      <point x="216" y="674"/>
      <point x="256" y="674" type="curve" smooth="yes"/>
      <point x="348" y="674"/>
      <point x="398" y="631"/>
      <point x="398" y="553" type="curve" smooth="yes"/>
      <point x="398" y="430"/>
      <point x="227" y="413"/>
      <point x="227" y="212" type="curve" smooth="yes"/>
      <point x="227" y="205"/>
      <point x="228" y="197"/>
    </contour>
    <contour>
      <point x="247" y="-13" type="curve" smooth="yes"/>
      <point x="276" y="-13"/>
      <point x="295" y="9"/>
      <point x="295" y="36" type="curve" smooth="yes"/>
      <point x="295" y="65"/>
      <point x="276" y="86"/>
      <point x="247" y="86" type="curve" smooth="yes"/>
      <point x="218" y="86"/>
      <point x="199" y="65"/>
      <point x="199" y="36" type="curve" smooth="yes"/>
      <point x="199" y="9"/>
      <point x="218" y="-13"/>
    </contour>
  </outline>
</glyph>
<glyph name="O" format="2">
  <advance width="560"/>
  <unicode hex="004F"/>
  <anchor x="280" y="0" name="bottom"/>
  <anchor x="280" y="389" name="center"/>
  <anchor x="499" y="11" name="ogonek"/>
  <anchor x="280" y="685" name="top"/>
  <anchor x="27" y="776" name="topleft"/>
  <anchor x="533" y="776" name="topright"/>
  <outline>
    <contour>
      <point x="280" y="-15" type="curve" smooth="yes"/>
      <point x="432" y="-15"/>
      <point x="522" y="119"/>
      <point x="522" y="347" type="curve" smooth="yes"/>
      <point x="522" y="575"/>
      <point x="432" y="709"/>
      <point x="280" y="709" type="curve" smooth="yes"/>
      <point x="128" y="709"/>
      <point x="38" y="575"/>
      <point x="38" y="347" type="curve" smooth="yes"/>
      <point x="38" y="119"/>
      <point x="128" y="-15"/>
    </contour>
    <contour>
      <point x="280" y="17" type="curve" smooth="yes"/>
      <point x="151" y="17"/>
      <point x="74" y="140"/>
      <point x="74" y="347" type="curve" smooth="yes"/>
      <point x="74" y="554"/>
      <point x="151" y="677"/>
      <point x="280" y="677" type="curve" smooth="yes"/>
      <point x="409" y="677"/>
      <point x="486" y="554"/>
      <point x="486" y="347" type="curve" smooth="yes"/>
      <point x="486" y="140"/>
      <point x="409" y="17"/>
    </contour>
  </outline>
</glyph>
<glyph name="P" format="2">
  <advance width="560"/>
  <unicode hex="0050"/>
  <anchor x="279" y="0" name="bottom"/>
  <anchor x="279" y="685" name="top"/>
  <outline>
    <contour>
      <point x="113" y="0" type="line"/>
      <point x="148" y="0" type="line"/>
      <point x="148" y="282" type="line"/>
      <point x="234" y="282" type="line" smooth="yes"/>
      <point x="400" y="282"/>
      <point x="481" y="350"/>
      <point x="481" y="488" type="curve" smooth="yes"/>
      <point x="481" y="627"/>
      <point x="403" y="697"/>
      <point x="247" y="697" type="curve" smooth="yes"/>
      <point x="194" y="697"/>
      <point x="143" y="691"/>
      <point x="113" y="682" type="curve"/>
    </contour>
    <contour>
      <point x="148" y="313" type="line"/>
      <point x="148" y="656" type="line"/>
      <point x="171" y="662"/>
      <point x="218" y="665"/>
      <point x="247" y="665" type="curve" smooth="yes"/>
      <point x="379" y="665"/>
      <point x="445" y="606"/>
      <point x="445" y="489" type="curve" smooth="yes"/>
      <point x="445" y="339"/>
      <point x="352" y="313"/>
      <point x="231" y="313" type="curve" smooth="yes"/>
    </contour>
  </outline>
</glyph>
<glyph name="V" format="2">
  <advance width="560"/>
  <unicode hex="0056"/>
  <anchor x="280" y="0" name="bottom"/>
  <anchor x="280" y="685" name="top"/>
  <outline>
    <contour>
      <point x="267" y="0" type="curve"/>
      <point x="295" y="0" type="line"/>
      <point x="381" y="189"/>
      <point x="449" y="385"/>
      <point x="540" y="693" type="curve"/>
      <point x="504" y="693" type="line"/>
      <point x="423" y="409"/>
      <point x="372" y="271"/>
      <point x="282" y="44" type="curve"/>
      <point x="195" y="259"/>
      <point x="135" y="425"/>
      <point x="58" y="693" type="curve"/>
      <point x="20" y="693" type="line"/>
      <point x="90" y="464"/>
      <point x="170" y="215"/>
    </contour>
  </outline>
</glyph>
<glyph name="Y" format="2">
  <advance width="560"/>
  <unicode hex="0059"/>
  <anchor x="280" y="0" name="bottom"/>
  <anchor x="280" y="685" name="top"/>
  <anchor x="27" y="776" name="topleft"/>
  <outline>
    <contour>
      <point x="262" y="0" type="line"/>
      <point x="297" y="0" type="line"/>
      <point x="297" y="262" type="line"/>
      <point x="394" y="411"/>
      <point x="469" y="532"/>
      <point x="540" y="693" type="curve"/>
      <point x="502" y="693" type="line"/>
      <point x="453" y="574"/>
      <point x="392" y="470"/>
      <point x="280" y="290" type="curve"/>
      <point x="198" y="416"/>
      <point x="121" y="556"/>
      <point x="60" y="693" type="curve"/>
      <point x="20" y="693" type="line"/>
      <point x="98" y="529"/>
      <point x="175" y="390"/>
      <point x="262" y="260" type="curve"/>
    </contour>
  </outline>
</glyph>
<glyph name="d" format="2">
  <advance width="560"/>
  <unicode hex="0064"/>
  <anchor x="279" y="0" name="bottom"/>
  <anchor x="279" y="291" name="center"/>
  <anchor x="279" y="869" name="top"/>
  <anchor x="532" y="869" name="topright"/>
  <outline>
    <contour>
      <point x="314" y="-6" type="curve" smooth="yes"/>
      <point x="360" y="-6"/>
      <point x="430" y="6"/>
      <point x="470" y="20" type="curve"/>
      <point x="470" y="776" type="line"/>
      <point x="437" y="769" type="line"/>
      <point x="437" y="474" type="line"/>
      <point x="401" y="503"/>
      <point x="343" y="526"/>
      <point x="279" y="526" type="curve" smooth="yes"/>
      <point x="142" y="526"/>
      <point x="53" y="428"/>
      <point x="53" y="263" type="curve" smooth="yes"/>
      <point x="53" y="95"/>
      <point x="147" y="-6"/>
    </contour>
    <contour>
      <point x="312" y="24" type="curve" smooth="yes"/>
      <point x="162" y="24"/>
      <point x="88" y="114"/>
      <point x="88" y="263" type="curve" smooth="yes"/>
      <point x="88" y="409"/>
      <point x="159" y="496"/>
      <point x="280" y="496" type="curve" smooth="yes"/>
      <point x="339" y="496"/>
      <point x="393" y="476"/>
      <point x="437" y="443" type="curve"/>
      <point x="437" y="42" type="line"/>
      <point x="402" y="30"/>
      <point x="353" y="24"/>
    </contour>
  </outline>
</glyph>
<glyph name="g" format="2">
  <advance width="560"/>
  <unicode hex="0067"/>
  <anchor x="279" y="-207" name="bottom"/>
  <anchor x="279" y="582" name="top"/>
  <outline>
    <contour>
      <point x="226" y="-188" type="curve" smooth="yes"/>
      <point x="397" y="-188"/>
      <point x="470" y="-129"/>
      <point x="470" y="17" type="curve" smooth="yes"/>
      <point x="470" y="493" type="line"/>
      <point x="421" y="512"/>
      <point x="361" y="523"/>
      <point x="297" y="523" type="curve" smooth="yes"/>
      <point x="151" y="523"/>
      <point x="53" y="419"/>
      <point x="53" y="268" type="curve" smooth="yes"/>
      <point x="53" y="115"/>
      <point x="136" y="24"/>
      <point x="284" y="24" type="curve" smooth="yes"/>
      <point x="340" y="24"/>
      <point x="395" y="42"/>
      <point x="438" y="74" type="curve"/>
      <point x="438" y="23" type="line" smooth="yes"/>
      <point x="438" y="-112"/>
      <point x="378" y="-158"/>
      <point x="226" y="-158" type="curve" smooth="yes"/>
      <point x="181" y="-158"/>
      <point x="121" y="-146"/>
      <point x="92" y="-131" type="curve"/>
      <point x="83" y="-161" type="line"/>
      <point x="119" y="-177"/>
      <point x="179" y="-188"/>
    </contour>
    <contour>
      <point x="284" y="54" type="curve" smooth="yes"/>
      <point x="162" y="54"/>
      <point x="88" y="137"/>
      <point x="88" y="267" type="curve" smooth="yes"/>
      <point x="88" y="403"/>
      <point x="171" y="493"/>
      <point x="298" y="493" type="curve" smooth="yes"/>
      <point x="345" y="493"/>
      <point x="402" y="485"/>
      <point x="437" y="473" type="curve"/>
      <point x="437" y="105" type="line"/>
      <point x="401" y="75"/>
      <point x="341" y="56"/>
    </contour>
  </outline>
</glyph>
<glyph name="m" format="2">
  <advance width="560"/>
  <unicode hex="006D"/>
  <anchor x="279" y="0" name="bottom"/>
  <anchor x="279" y="582" name="top"/>
  <outline>
    <contour>
      <point x="66" y="0" type="line"/>
      <point x="99" y="0" type="line"/>
      <point x="99" y="472" type="line"/>
      <point x="126" y="485"/>
      <point x="155" y="492"/>
      <point x="180" y="492" type="curve" smooth="yes"/>
      <point x="236" y="492"/>
      <point x="268" y="466"/>
      <point x="268" y="385" type="curve" smooth="yes"/>
      <point x="268" y="200" type="line"/>
      <point x="301" y="200" type="line"/>
      <point x="301" y="389" type="line" smooth="yes"/>
      <point x="301" y="420"/>
      <point x="296" y="445"/>
      <point x="287" y="465" type="curve"/>
      <point x="318" y="486"/>
      <point x="347" y="492"/>
      <point x="371" y="492" type="curve" smooth="yes"/>
      <point x="434" y="492"/>
      <point x="470" y="464"/>
      <point x="470" y="375" type="curve" smooth="yes"/>
      <point x="470" y="0" type="line"/>
      <point x="503" y="0" type="line"/>
      <point x="503" y="380" type="line" smooth="yes"/>
      <point x="503" y="484"/>
      <point x="452" y="522"/>
      <point x="370" y="522" type="curve" smooth="yes"/>
      <point x="338" y="522"/>
      <point x="307" y="514"/>
      <point x="269" y="491" type="curve"/>
      <point x="248" y="513"/>
      <point x="217" y="522"/>
      <point x="179" y="522" type="curve" smooth="yes"/>
      <point x="143" y="522"/>
      <point x="109" y="514"/>
      <point x="66" y="493" type="curve"/>
    </contour>
  </outline>
</glyph>
<glyph name="v" format="2">
  <advance width="560"/>
  <unicode hex="0076"/>
  <anchor x="280" y="0" name="bottom"/>
  <anchor x="280" y="582" name="top"/>
  <outline>
    <contour>
      <point x="265" y="0" type="curve"/>
      <point x="299" y="0" type="line"/>
      <point x="368" y="110"/>
      <point x="461" y="345"/>
      <point x="501" y="513" type="curve"/>
      <point x="467" y="513" type="line"/>
      <point x="430" y="372"/>
      <point x="353" y="148"/>
      <point x="283" y="33" type="curve"/>
      <point x="210" y="164"/>
      <point x="132" y="356"/>
      <point x="93" y="513" type="curve"/>
      <point x="59" y="513" type="line"/>
      <point x="103" y="338"/>
      <point x="183" y="140"/>
    </contour>
  </outline>
</glyph>
<glyph name="braceright" format="2">
  <advance width="560"/>
  <unicode hex="007D"/>
  <outline>
    <contour>
      <point x="105" y="-185" type="line"/>
      <point x="187" y="-185" type="line" smooth="yes"/>
      <point x="285" y="-185"/>
      <point x="324" y="-139"/>
      <point x="324" y="-23" type="curve" smooth="yes"/>
      <point x="324" y="186" type="line" smooth="yes"/>
      <point x="324" y="235"/>
      <point x="357" y="285"/>
      <point x="424" y="285" type="curve"/>
      <point x="455" y="285" type="line"/>
      <point x="455" y="313" type="line"/>
      <point x="424" y="313" type="line"/>
      <point x="357" y="313"/>
      <point x="324" y="363"/>
      <point x="324" y="412" type="curve" smooth="yes"/>
      <point x="324" y="620" type="line" smooth="yes"/>
      <point x="324" y="736"/>
      <point x="285" y="783"/>
      <point x="187" y="783" type="curve" smooth="yes"/>
      <point x="105" y="783" type="line"/>
      <point x="105" y="753" type="line"/>
      <point x="189" y="753" type="line"/>
      <point x="265" y="749"/>
      <point x="290" y="721"/>
      <point x="290" y="639" type="curve" smooth="yes"/>
      <point x="290" y="449" type="line" smooth="yes"/>
      <point x="290" y="351"/>
      <point x="320" y="318"/>
      <point x="365" y="299" type="curve"/>
      <point x="322" y="278"/>
      <point x="290" y="254"/>
      <point x="290" y="151" type="curve" smooth="yes"/>
      <point x="290" y="-42" type="line" smooth="yes"/>
      <point x="290" y="-124"/>
      <point x="265" y="-152"/>
      <point x="186" y="-155" type="curve"/>
      <point x="105" y="-155" type="line"/>
    </contour>
  </outline>
</glyph>
<glyph name="sterling" format="2">
  <advance width="560"/>
  <unicode hex="00A3"/>
  <outline>
    <contour>
      <point x="137" y="0" type="curve"/>
      <point x="499" y="0" type="line"/>
      <point x="499" y="31" type="line"/>
      <point x="177" y="31" type="line"/>
      <point x="192" y="124"/>
      <point x="196" y="240"/>
      <point x="196" y="311" type="curve" smooth="yes"/>
      <point x="196" y="321" type="line"/>
      <point x="414" y="321" type="line"/>
      <point x="414" y="352" type="line"/>
      <point x="196" y="352" type="line"/>
      <point x="196" y="487" type="line" smooth="yes"/>
      <point x="196" y="633"/>
      <point x="255" y="674"/>
      <point x="345" y="674" type="curve" smooth="yes"/>
      <point x="390" y="674"/>
      <point x="436" y="662"/>
      <point x="465" y="647" type="curve"/>
      <point x="475" y="677" type="line"/>
      <point x="444" y="692"/>
      <point x="399" y="706"/>
      <point x="346" y="706" type="curve" smooth="yes"/>
      <point x="248" y="706"/>
      <point x="161" y="661"/>
      <point x="161" y="477" type="curve" smooth="yes"/>
      <point x="161" y="352" type="line"/>
      <point x="61" y="352" type="line"/>
      <point x="61" y="321" type="line"/>
      <point x="161" y="321" type="line"/>
      <point x="161" y="312" type="line" smooth="yes"/>
      <point x="161" y="184"/>
      <point x="150" y="88"/>
    </contour>
  </outline>
</glyph>
<glyph name="paragraph" format="2">
  <advance width="560"/>
  <unicode hex="00B6"/>
  <outline>
    <contour>
      <point x="302" y="-185" type="line"/>
      <point x="336" y="-185" type="line"/>
      <point x="336" y="667" type="line"/>
      <point x="371" y="671"/>
      <point x="414" y="669"/>
      <point x="451" y="664" type="curve"/>
      <point x="451" y="-185" type="line"/>
      <point x="485" y="-185" type="line"/>
      <point x="485" y="692" type="line"/>
      <point x="450" y="697"/>
      <point x="407" y="700"/>
      <point x="364" y="700" type="curve" smooth="yes"/>
      <point x="204" y="700"/>
      <point x="52" y="640"/>
      <point x="52" y="483" type="curve" smooth="yes"/>
      <point x="52" y="354"/>
      <point x="141" y="278"/>
      <point x="302" y="269" type="curve"/>
    </contour>
  </outline>
</glyph>
<glyph name="onequarter" format="2">
  <advance width="560"/>
  <unicode hex="00BC"/>
  <outline>
    <contour>
      <point x="35" y="0" type="line"/>
      <point x="69" y="0" type="line"/>
      <point x="525" y="693" type="line"/>
      <point x="489" y="693" type="line"/>
    </contour>
    <contour>
      <point x="442" y="0" type="line"/>
      <point x="471" y="0" type="line"/>
      <point x="471" y="67" type="line"/>
      <point x="515" y="67" type="line"/>
      <point x="515" y="91" type="line"/>
      <point x="471" y="91" type="line"/>
      <point x="471" y="280" type="line"/>
      <point x="448" y="280" type="line"/>
      <point x="390" y="234"/>
      <point x="318" y="140"/>
      <point x="291" y="86" type="curve"/>
      <point x="291" y="67" type="line"/>
      <point x="442" y="67" type="line"/>
    </contour>
    <contour>
      <point x="324" y="91" type="line"/>
      <point x="347" y="136"/>
      <point x="398" y="199"/>
      <point x="442" y="242" type="curve"/>
      <point x="442" y="91" type="line"/>
    </contour>
    <contour>
      <point x="135" y="421" type="line"/>
      <point x="163" y="421" type="line"/>
      <point x="163" y="701" type="line"/>
      <point x="143" y="701" type="line"/>
      <point x="112" y="666"/>
      <point x="84" y="655"/>
      <point x="42" y="641" type="curve"/>
      <point x="50" y="619" type="line"/>
      <point x="76" y="626"/>
      <point x="109" y="638"/>
      <point x="135" y="657" type="curve"/>
    </contour>
  </outline>
</glyph>
<glyph name="threequarters" format="2">
  <advance width="560"/>
  <unicode hex="00BE"/>
  <outline>
    <contour>
      <point x="49" y="0" type="line"/>
      <point x="83" y="0" type="line"/>
      <point x="539" y="693" type="line"/>
      <point x="503" y="693" type="line"/>
    </contour>
    <contour>
      <point x="452" y="0" type="line"/>
      <point x="481" y="0" type="line"/>
      <point x="481" y="67" type="line"/>
      <point x="525" y="67" type="line"/>
      <point x="525" y="91" type="line"/>
      <point x="481" y="91" type="line"/>
      <point x="481" y="280" type="line"/>
      <point x="458" y="280" type="line"/>
      <point x="400" y="234"/>
      <point x="328" y="140"/>
      <point x="301" y="86" type="curve"/>
      <point x="301" y="67" type="line"/>
      <point x="452" y="67" type="line"/>
    </contour>
    <contour>
      <point x="334" y="91" type="line"/>
      <point x="357" y="136"/>
      <point x="408" y="199"/>
      <point x="452" y="242" type="curve"/>
      <point x="452" y="91" type="line"/>
    </contour>
    <contour>
      <point x="120" y="411" type="curve" smooth="yes"/>
      <point x="191" y="411"/>
      <point x="233" y="446"/>
      <point x="233" y="494" type="curve" smooth="yes"/>
      <point x="233" y="530"/>
      <point x="209" y="556"/>
      <point x="161" y="569" type="curve"/>
      <point x="197" y="580"/>
      <point x="215" y="607"/>
      <point x="215" y="638" type="curve" smooth="yes"/>
      <point x="215" y="682"/>
      <point x="181" y="709"/>
      <point x="126" y="709" type="curve" smooth="yes"/>
      <point x="93" y="709"/>
      <point x="64" y="700"/>
      <point x="41" y="686" type="curve"/>
      <point x="52" y="661" type="line"/>
      <point x="72" y="674"/>
      <point x="97" y="682"/>
      <point x="124" y="682" type="curve" smooth="yes"/>
      <point x="160" y="682"/>
      <point x="183" y="667"/>
      <point x="183" y="638" type="curve" smooth="yes"/>
      <point x="183" y="599"/>
      <point x="153" y="581"/>
      <point x="103" y="581" type="curve" smooth="yes"/>
      <point x="92" y="581" type="line"/>
      <point x="92" y="554" type="line"/>
      <point x="101" y="554" type="line" smooth="yes"/>
      <point x="161" y="554"/>
      <point x="201" y="533"/>
      <point x="201" y="494" type="curve" smooth="yes"/>
      <point x="201" y="458"/>
      <point x="174" y="438"/>
      <point x="117" y="438" type="curve" smooth="yes"/>
      <point x="92" y="438"/>
      <point x="68" y="444"/>
      <point x="45" y="453" type="curve"/>
      <point x="37" y="426" type="line"/>
      <point x="62" y="415"/>
      <point x="92" y="411"/>
    </contour>
  </outline>
</glyph>
<glyph name="questiondown" format="2">
  <advance width="560"/>
  <unicode hex="00BF"/>
  <outline>
    <contour>
      <point x="296" y="-199" type="curve" smooth="yes"/>
      <point x="339" y="-199"/>
      <point x="396" y="-188"/>
      <point x="424" y="-171" type="curve"/>
      <point x="412" y="-141" type="line"/>
      <point x="385" y="-156"/>
      <point x="338" y="-167"/>
      <point x="298" y="-167" type="curve" smooth="yes"/>
      <point x="206" y="-167"/>
      <point x="156" y="-124"/>
      <point x="156" y="-46" type="curve" smooth="yes"/>
      <point x="156" y="11"/>
      <point x="193" y="46"/>
      <point x="233" y="86" type="curve" smooth="yes"/>
      <point x="278" y="133"/>
      <point x="327" y="188"/>
      <point x="327" y="295" type="curve" smooth="yes"/>
      <point x="327" y="302"/>
      <point x="326" y="310"/>
      <point x="326" y="318" type="curve"/>
      <point x="295" y="318" type="line"/>
      <point x="295" y="203"/>
      <point x="253" y="150"/>
      <point x="210" y="107" type="curve" smooth="yes"/>
      <point x="166" y="62"/>
      <point x="120" y="29"/>
      <point x="120" y="-52" type="curve" smooth="yes"/>
      <point x="120" y="-143"/>
      <point x="188" y="-199"/>
    </contour>
    <contour>
      <point x="307" y="421" type="curve" smooth="yes"/>
      <point x="336" y="421"/>
      <point x="355" y="442"/>
      <point x="355" y="471" type="curve" smooth="yes"/>
      <point x="355" y="498"/>
      <point x="336" y="520"/>
      <point x="307" y="520" type="curve" smooth="yes"/>
      <point x="278" y="520"/>
      <point x="259" y="498"/>
      <point x="259" y="471" type="curve" smooth="yes"/>
      <point x="259" y="442"/>
      <point x="278" y="421"/>
    </contour>
  </outline>
</glyph>
<glyph name="Eth" format="2">
  <advance width="560"/>
  <unicode hex="00D0"/>
  <outline>
    <contour>
      <point x="240" y="-4" type="curve" smooth="yes"/>
      <point x="407" y="-4"/>
      <point x="508" y="126"/>
      <point x="508" y="347" type="curve" smooth="yes"/>
      <point x="508" y="568"/>
      <point x="408" y="699"/>
      <point x="231" y="699" type="curve" smooth="yes"/>
      <point x="180" y="699"/>
      <point x="120" y="693"/>
      <point x="90" y="682" type="curve"/>
      <point x="90" y="378" type="line"/>
      <point x="38" y="378" type="line"/>
      <point x="38" y="347" type="line"/>
      <point x="90" y="347" type="line"/>
      <point x="90" y="12" type="line"/>
      <point x="127" y="3"/>
      <point x="188" y="-4"/>
    </contour>
    <contour>
      <point x="240" y="28" type="curve" smooth="yes"/>
      <point x="196" y="28"/>
      <point x="154" y="31"/>
      <point x="125" y="36" type="curve"/>
      <point x="125" y="347" type="line"/>
      <point x="287" y="347" type="line"/>
      <point x="287" y="378" type="line"/>
      <point x="125" y="378" type="line"/>
      <point x="125" y="658" type="line"/>
      <point x="154" y="663"/>
      <point x="194" y="667"/>
      <point x="231" y="667" type="curve" smooth="yes"/>
      <point x="386" y="667"/>
      <point x="472" y="553"/>
      <point x="472" y="347" type="curve" smooth="yes"/>
      <point x="472" y="147"/>
      <point x="388" y="28"/>
    </contour>
  </outline>
</glyph>
<glyph name="Oslash" format="2">
  <advance width="560"/>
  <unicode hex="00D8"/>
  <anchor x="280" y="0" name="bottom"/>
  <anchor x="280" y="685" name="top"/>
  <outline>
    <contour>
      <point x="111" y="-19" type="line"/>
      <point x="138" y="38" type="line"/>
      <point x="176" y="3"/>
      <point x="224" y="-15"/>
      <point x="280" y="-15" type="curve" smooth="yes"/>
      <point x="432" y="-15"/>
      <point x="522" y="119"/>
      <point x="522" y="347" type="curve" smooth="yes"/>
      <point x="522" y="486"/>
      <point x="489" y="589"/>
      <point x="429" y="650" type="curve"/>
      <point x="454" y="703" type="line"/>
      <point x="425" y="717" type="line"/>
      <point x="403" y="671" type="line"/>
      <point x="369" y="696"/>
      <point x="327" y="709"/>
      <point x="280" y="709" type="curve" smooth="yes"/>
      <point x="128" y="709"/>
      <point x="38" y="575"/>
      <point x="38" y="347" type="curve" smooth="yes"/>
      <point x="38" y="222"/>
      <point x="65" y="125"/>
      <point x="114" y="63" type="curve"/>
      <point x="82" y="-5" type="line"/>
    </contour>
    <contour>
      <point x="280" y="17" type="curve" smooth="yes"/>
      <point x="229" y="17"/>
      <point x="187" y="36"/>
      <point x="154" y="71" type="curve"/>
      <point x="412" y="616" type="line"/>
      <point x="460" y="560"/>
      <point x="486" y="468"/>
      <point x="486" y="347" type="curve" smooth="yes"/>
      <point x="486" y="140"/>
      <point x="409" y="17"/>
    </contour>
    <contour>
      <point x="132" y="100" type="line"/>
      <point x="94" y="156"/>
      <point x="74" y="241"/>
      <point x="74" y="347" type="curve" smooth="yes"/>
      <point x="74" y="554"/>
      <point x="151" y="677"/>
      <point x="280" y="677" type="curve" smooth="yes"/>
      <point x="322" y="677"/>
      <point x="358" y="664"/>
      <point x="388" y="640" type="curve"/>
    </contour>
  </outline>
</glyph>
<glyph name="ae" format="2">
  <advance width="560"/>
  <unicode hex="00E6"/>
  <anchor x="279" y="0" name="bottom"/>
  <anchor x="279" y="582" name="top"/>
  <outline>
    <contour>
      <point x="187" y="-7" type="curve" smooth="yes"/>
      <point x="244" y="-7"/>
      <point x="283" y="24"/>
      <point x="309" y="56" type="curve"/>
      <point x="335" y="14"/>
      <point x="374" y="-7"/>
      <point x="425" y="-7" type="curve" smooth="yes"/>
      <point x="457" y="-7"/>
      <point x="495" y="5"/>
      <point x="511" y="19" type="curve"/>
      <point x="505" y="47" type="line"/>
      <point x="487" y="34"/>
      <point x="456" y="23"/>
      <point x="427" y="23" type="curve" smooth="yes"/>
      <point x="342" y="23"/>
      <point x="299" y="92"/>
      <point x="297" y="256" type="curve"/>
      <point x="531" y="256" type="line"/>
      <point x="531" y="262"/>
      <point x="532" y="268"/>
      <point x="532" y="292" type="curve" smooth="yes"/>
      <point x="532" y="441"/>
      <point x="487" y="523"/>
      <point x="406" y="525" type="curve" smooth="yes"/>
      <point x="350" y="526"/>
      <point x="310" y="476"/>
      <point x="289" y="400" type="curve"/>
      <point x="280" y="486"/>
      <point x="237" y="525"/>
      <point x="167" y="525" type="curve" smooth="yes"/>
      <point x="134" y="525"/>
      <point x="100" y="518"/>
      <point x="81" y="506" type="curve"/>
      <point x="86" y="475" type="line"/>
      <point x="100" y="485"/>
      <point x="134" y="495"/>
      <point x="167" y="495" type="curve" smooth="yes"/>
      <point x="238" y="495"/>
      <point x="265" y="441"/>
      <point x="265" y="323" type="curve" smooth="yes"/>
      <point x="265" y="282" type="line"/>
      <point x="246" y="293"/>
      <point x="217" y="301"/>
      <point x="194" y="301" type="curve" smooth="yes"/>
      <point x="109" y="301"/>
      <point x="59" y="245"/>
      <point x="59" y="150" type="curve" smooth="yes"/>
      <point x="59" y="51"/>
      <point x="107" y="-7"/>
    </contour>
    <contour>
      <point x="191" y="28" type="curve" smooth="yes"/>
      <point x="130" y="28"/>
      <point x="94" y="74"/>
      <point x="94" y="151" type="curve" smooth="yes"/>
      <point x="94" y="226"/>
      <point x="132" y="271"/>
      <point x="196" y="271" type="curve" smooth="yes"/>
      <point x="221" y="271"/>
      <point x="245" y="264"/>
      <point x="264" y="252" type="curve"/>
      <point x="266" y="180"/>
      <point x="274" y="127"/>
      <point x="293" y="84" type="curve"/>
      <point x="274" y="55"/>
      <point x="242" y="28"/>
    </contour>
    <contour>
      <point x="298" y="284" type="line"/>
      <point x="302" y="396"/>
      <point x="339" y="495"/>
      <point x="406" y="495" type="curve" smooth="yes"/>
      <point x="467" y="495"/>
      <point x="497" y="426"/>
      <point x="497" y="284" type="curve"/>
    </contour>
  </outline>
</glyph>
<glyph name="oslash" format="2">
  <advance width="560"/>
  <unicode hex="00F8"/>
  <anchor x="279" y="582" name="top"/>
  <outline>
    <contour>
      <point x="86" y="-21" type="line"/>
      <point x="139" y="51" type="line"/>
      <point x="175" y="14"/>
      <point x="224" y="-7"/>
      <point x="280" y="-7" type="curve" smooth="yes"/>
      <point x="408" y="-7"/>
      <point x="495" y="101"/>
      <point x="495" y="259" type="curve" smooth="yes"/>
      <point x="495" y="338"/>
      <point x="473" y="404"/>
      <point x="436" y="451" type="curve"/>
      <point x="491" y="526" type="line"/>
      <point x="467" y="543" type="line"/>
      <point x="415" y="473" type="line"/>
      <point x="379" y="506"/>
      <point x="333" y="525"/>
      <point x="280" y="525" type="curve" smooth="yes"/>
      <point x="152" y="525"/>
      <point x="65" y="417"/>
      <point x="65" y="259" type="curve" smooth="yes"/>
      <point x="65" y="184"/>
      <point x="85" y="120"/>
      <point x="119" y="73" type="curve"/>
      <point x="62" y="-4" type="line"/>
    </contour>
    <contour>
      <point x="280" y="23" type="curve" smooth="yes"/>
      <point x="230" y="23"/>
      <point x="189" y="42"/>
      <point x="158" y="76" type="curve"/>
      <point x="415" y="424" type="line"/>
      <point x="444" y="383"/>
      <point x="460" y="327"/>
      <point x="460" y="259" type="curve" smooth="yes"/>
      <point x="460" y="116"/>
      <point x="388" y="23"/>
    </contour>
    <contour>
      <point x="140" y="101" type="line"/>
      <point x="114" y="141"/>
      <point x="100" y="195"/>
      <point x="100" y="259" type="curve" smooth="yes"/>
      <point x="100" y="401"/>
      <point x="170" y="495"/>
      <point x="280" y="495" type="curve" smooth="yes"/>
      <point x="326" y="495"/>
      <point x="366" y="478"/>
      <point x="396" y="447" type="curve"/>
    </contour>
  </outline>
</glyph>
<glyph name="aogonek" format="2">
  <advance width="560"/>
  <unicode hex="0105"/>
  <outline>
    <contour>
      <point x="423" y="-186" type="curve" smooth="yes"/>
      <point x="438" y="-186"/>
      <point x="453" y="-184"/>
      <point x="467" y="-179" type="curve"/>
      <point x="464" y="-150" type="line"/>
      <point x="451" y="-153"/>
      <point x="440" y="-155"/>
      <point x="431" y="-155" type="curve" smooth="yes"/>
      <point x="398" y="-155"/>
      <point x="380" y="-140"/>
      <point x="380" y="-110" type="curve" smooth="yes"/>
      <point x="380" y="-72"/>
      <point x="411" y="-29"/>
      <point x="467" y="17" type="curve"/>
      <point x="467" y="342" type="line" smooth="yes"/>
      <point x="467" y="459"/>
      <point x="410" y="525"/>
      <point x="281" y="525" type="curve" smooth="yes"/>
      <point x="226" y="525"/>
      <point x="177" y="517"/>
      <point x="145" y="502" type="curve"/>
      <point x="150" y="472" type="line"/>
      <point x="176" y="485"/>
      <point x="232" y="495"/>
      <point x="279" y="495" type="curve" smooth="yes"/>
      <point x="392" y="495"/>
      <point x="434" y="444"/>
      <point x="434" y="323" type="curve" smooth="yes"/>
      <point x="434" y="284" type="line"/>
      <point x="403" y="295"/>
      <point x="352" y="303"/>
      <point x="312" y="303" type="curve" smooth="yes"/>
      <point x="162" y="303"/>
      <point x="88" y="251"/>
      <point x="88" y="151" type="curve" smooth="yes"/>
      <point x="88" y="47"/>
      <point x="160" y="-6"/>
      <point x="301" y="-6" type="curve" smooth="yes"/>
      <point x="338" y="-6"/>
      <point x="377" y="-3"/>
      <point x="413" y="4" type="curve"/>
      <point x="368" y="-36"/>
      <point x="346" y="-76"/>
      <point x="346" y="-116" type="curve" smooth="yes"/>
      <point x="346" y="-159"/>
      <point x="376" y="-186"/>
    </contour>
    <contour>
      <point x="306" y="24" type="curve" smooth="yes"/>
      <point x="180" y="24"/>
      <point x="123" y="65"/>
      <point x="123" y="151" type="curve" smooth="yes"/>
      <point x="123" y="232"/>
      <point x="186" y="273"/>
      <point x="313" y="273" type="curve" smooth="yes"/>
      <point x="361" y="273"/>
      <point x="402" y="266"/>
      <point x="434" y="254" type="curve"/>
      <point x="434" y="39" type="line"/>
      <point x="394" y="28"/>
      <point x="346" y="24"/>
    </contour>
  </outline>
</glyph>
<glyph name="dcaron" format="2">
  <advance width="560"/>
  <unicode hex="010F"/>
  <outline>
    <contour>
      <point x="276" y="-6" type="curve" smooth="yes"/>
      <point x="312" y="-6"/>
      <point x="366" y="6"/>
      <point x="397" y="20" type="curve"/>
      <point x="397" y="776" type="line"/>
      <point x="364" y="769" type="line"/>
      <point x="364" y="474" type="line"/>
      <point x="336" y="503"/>
      <point x="291" y="526"/>
      <point x="241" y="526" type="curve" smooth="yes"/>
      <point x="119" y="526"/>
      <point x="40" y="428"/>
      <point x="40" y="263" type="curve" smooth="yes"/>
      <point x="40" y="95"/>
      <point x="125" y="-6"/>
    </contour>
    <contour>
      <point x="274" y="24" type="curve" smooth="yes"/>
      <point x="141" y="24"/>
      <point x="75" y="114"/>
      <point x="75" y="263" type="curve" smooth="yes"/>
      <point x="75" y="409"/>
      <point x="137" y="496"/>
      <point x="242" y="496" type="curve" smooth="yes"/>
      <point x="288" y="496"/>
      <point x="330" y="476"/>
      <point x="364" y="443" type="curve"/>
      <point x="364" y="42" type="line"/>
      <point x="339" y="30"/>
      <point x="304" y="24"/>
    </contour>
    <contour>
      <point x="482" y="559" type="line"/>
      <point x="510" y="559" type="line"/>
      <point x="523" y="776" type="line"/>
      <point x="482" y="776" type="line"/>
    </contour>
  </outline>
</glyph>
<glyph name="oe" format="2">
  <advance width="560"/>
  <unicode hex="0153"/>
  <anchor x="280" y="0" name="bottom"/>
  <anchor x="280" y="582" name="top"/>
  <outline>
    <contour>
      <point x="179" y="-12" type="curve" smooth="yes"/>
      <point x="238" y="-12"/>
      <point x="276" y="31"/>
      <point x="296" y="123" type="curve"/>
      <point x="313" y="28"/>
      <point x="361" y="-12"/>
      <point x="433" y="-12" type="curve" smooth="yes"/>
      <point x="460" y="-12"/>
      <point x="493" y="-2"/>
      <point x="511" y="13" type="curve"/>
      <point x="506" y="41" type="line"/>
      <point x="484" y="27"/>
      <point x="459" y="18"/>
      <point x="435" y="18" type="curve" smooth="yes"/>
      <point x="353" y="18"/>
      <point x="315" y="94"/>
      <point x="313" y="256" type="curve"/>
      <point x="523" y="256" type="line"/>
      <point x="523" y="262"/>
      <point x="524" y="268"/>
      <point x="524" y="292" type="curve" smooth="yes"/>
      <point x="524" y="426"/>
      <point x="487" y="525"/>
      <point x="409" y="525" type="curve" smooth="yes"/>
      <point x="350" y="525"/>
      <point x="312" y="467"/>
      <point x="296" y="385" type="curve"/>
      <point x="278" y="478"/>
      <point x="234" y="525"/>
      <point x="179" y="525" type="curve" smooth="yes"/>
      <point x="90" y="525"/>
      <point x="47" y="438"/>
      <point x="47" y="259" type="curve" smooth="yes"/>
      <point x="47" y="77"/>
      <point x="90" y="-12"/>
    </contour>
    <contour>
      <point x="179" y="18" type="curve" smooth="yes"/>
      <point x="114" y="18"/>
      <point x="82" y="97"/>
      <point x="82" y="259" type="curve" smooth="yes"/>
      <point x="82" y="417"/>
      <point x="114" y="495"/>
      <point x="179" y="495" type="curve" smooth="yes"/>
      <point x="240" y="495"/>
      <point x="279" y="404"/>
      <point x="279" y="259" type="curve" smooth="yes"/>
      <point x="279" y="111"/>
      <point x="241" y="18"/>
    </contour>
    <contour>
      <point x="313" y="284" type="line"/>
      <point x="317" y="394"/>
      <point x="349" y="495"/>
      <point x="409" y="495" type="curve" smooth="yes"/>
      <point x="459" y="495"/>
      <point x="489" y="422"/>
      <point x="489" y="284" type="curve"/>
    </contour>
  </outline>
</glyph>
<glyph name="scedilla" format="2">
  <advance width="560"/>
  <unicode hex="015F"/>
  <outline>
    <contour>
      <point x="251" y="-189" type="curve" smooth="yes"/>
      <point x="307" y="-189"/>
      <point x="341" y="-160"/>
      <point x="341" y="-121" type="curve" smooth="yes"/>
      <point x="341" y="-89"/>
      <point x="318" y="-66"/>
      <point x="272" y="-49" type="curve"/>
      <point x="277" y="-36"/>
      <point x="284" y="-21"/>
      <point x="292" y="-6" type="curve"/>
      <point x="408" y="0"/>
      <point x="473" y="49"/>
      <point x="473" y="131" type="curve" smooth="yes"/>
      <point x="473" y="199"/>
      <point x="427" y="228"/>
      <point x="293" y="280" type="curve" smooth="yes"/>
      <point x="159" y="332"/>
      <point x="136" y="345"/>
      <point x="136" y="398" type="curve" smooth="yes"/>
      <point x="136" y="458"/>
      <point x="197" y="495"/>
      <point x="293" y="495" type="curve" smooth="yes"/>
      <point x="347" y="495"/>
      <point x="407" y="486"/>
      <point x="441" y="471" type="curve"/>
      <point x="449" y="499" type="line"/>
      <point x="419" y="515"/>
      <point x="351" y="525"/>
      <point x="293" y="525" type="curve" smooth="yes"/>
      <point x="176" y="525"/>
      <point x="101" y="474"/>
      <point x="101" y="394" type="curve" smooth="yes"/>
      <point x="101" y="327"/>
      <point x="139" y="302"/>
      <point x="270" y="252" type="curve" smooth="yes"/>
      <point x="401" y="202"/>
      <point x="438" y="185"/>
      <point x="438" y="127" type="curve" smooth="yes"/>
      <point x="438" y="62"/>
      <point x="378" y="23"/>
      <point x="274" y="23" type="curve" smooth="yes"/>
      <point x="206" y="23"/>
      <point x="153" y="32"/>
      <point x="100" y="52" type="curve"/>
      <point x="90" y="22" type="line"/>
      <point x="130" y="5"/>
      <point x="207" y="-7"/>
      <point x="262" y="-7" type="curve"/>
      <point x="253" y="-25"/>
      <point x="243" y="-47"/>
      <point x="235" y="-65" type="curve"/>
      <point x="294" y="-86"/>
      <point x="309" y="-97"/>
      <point x="309" y="-122" type="curve" smooth="yes"/>
      <point x="309" y="-146"/>
      <point x="288" y="-160"/>
      <point x="247" y="-160" type="curve" smooth="yes"/>
      <point x="231" y="-160"/>
      <point x="211" y="-157"/>
      <point x="196" y="-152" type="curve"/>
      <point x="191" y="-179" type="line"/>
      <point x="209" y="-186"/>
      <point x="229" y="-189"/>
    </contour>
  </outline>
</glyph>
<glyph name="Uogonek" format="2">
  <advance width="560"/>
  <unicode hex="0172"/>
  <outline>
    <contour>
      <point x="321" y="-186" type="curve" smooth="yes"/>
      <point x="336" y="-186"/>
      <point x="351" y="-184"/>
      <point x="365" y="-179" type="curve"/>
      <point x="362" y="-150" type="line"/>
      <point x="349" y="-153"/>
      <point x="338" y="-155"/>
      <point x="329" y="-155" type="curve" smooth="yes"/>
      <point x="296" y="-155"/>
      <point x="278" y="-140"/>
      <point x="278" y="-110" type="curve" smooth="yes"/>
      <point x="278" y="-54"/>
      <point x="324" y="-29"/>
      <point x="393" y="13" type="curve" smooth="yes"/>
      <point x="461" y="55"/>
      <point x="501" y="123"/>
      <point x="501" y="234" type="curve" smooth="yes"/>
      <point x="501" y="693" type="line"/>
      <point x="466" y="693" type="line"/>
      <point x="466" y="237" type="line" smooth="yes"/>
      <point x="466" y="98"/>
      <point x="410" y="22"/>
      <point x="282" y="22" type="curve" smooth="yes"/>
      <point x="151" y="22"/>
      <point x="94" y="98"/>
      <point x="94" y="237" type="curve" smooth="yes"/>
      <point x="94" y="693" type="line"/>
      <point x="59" y="693" type="line"/>
      <point x="59" y="234" type="line" smooth="yes"/>
      <point x="59" y="58"/>
      <point x="148" y="-16"/>
      <point x="308" y="-9" type="curve"/>
      <point x="265" y="-41"/>
      <point x="244" y="-77"/>
      <point x="244" y="-116" type="curve" smooth="yes"/>
      <point x="244" y="-159"/>
      <point x="274" y="-186"/>
    </contour>
  </outline>
</glyph>
<glyph name="Tonesix" format="2">
  <advance width="560"/>
  <unicode hex="0184"/>
  <outline>
    <contour>
      <point x="246" y="-7" type="curve" smooth="yes"/>
      <point x="413" y="-7"/>
      <point x="507" y="94"/>
      <point x="507" y="262" type="curve" smooth="yes"/>
      <point x="507" y="427"/>
      <point x="422" y="525"/>
      <point x="281" y="525" type="curve" smooth="yes"/>
      <point x="217" y="525"/>
      <point x="159" y="502"/>
      <point x="123" y="473" type="curve"/>
      <point x="123" y="776" type="line"/>
      <point x="99" y="768"/>
      <point x="61" y="749"/>
      <point x="38" y="733" type="curve"/>
      <point x="90" y="675" type="line"/>
      <point x="90" y="15" type="line"/>
      <point x="128" y="3"/>
      <point x="200" y="-7"/>
    </contour>
    <contour>
      <point x="248" y="23" type="curve" smooth="yes"/>
      <point x="207" y="23"/>
      <point x="158" y="28"/>
      <point x="123" y="37" type="curve"/>
      <point x="123" y="442" type="line"/>
      <point x="167" y="475"/>
      <point x="221" y="495"/>
      <point x="280" y="495" type="curve" smooth="yes"/>
      <point x="401" y="495"/>
      <point x="472" y="408"/>
      <point x="472" y="262" type="curve" smooth="yes"/>
      <point x="472" y="113"/>
      <point x="398" y="23"/>
    </contour>
  </outline>
</glyph>
<glyph name="deltaturned" format="2">
  <advance width="560"/>
  <unicode hex="018D"/>
  <outline>
    <contour>
      <point x="255" y="-185" type="curve" smooth="yes"/>
      <point x="354" y="-185"/>
      <point x="412" y="-147"/>
      <point x="412" y="-75" type="curve" smooth="yes"/>
      <point x="412" y="-24"/>
      <point x="384" y="10"/>
      <point x="321" y="37" type="curve"/>
      <point x="437" y="88"/>
      <point x="501" y="176"/>
      <point x="501" y="287" type="curve" smooth="yes"/>
      <point x="501" y="429"/>
      <point x="416" y="525"/>
      <point x="280" y="525" type="curve" smooth="yes"/>
      <point x="147" y="525"/>
      <point x="59" y="435"/>
      <point x="59" y="287" type="curve" smooth="yes"/>
      <point x="59" y="158"/>
      <point x="122" y="79"/>
      <point x="271" y="23" type="curve" smooth="yes"/>
      <point x="345" y="-4"/>
      <point x="377" y="-27"/>
      <point x="377" y="-76" type="curve" smooth="yes"/>
      <point x="377" y="-129"/>
      <point x="333" y="-155"/>
      <point x="255" y="-155" type="curve" smooth="yes"/>
      <point x="198" y="-155"/>
      <point x="160" y="-146"/>
      <point x="125" y="-133" type="curve"/>
      <point x="115" y="-161" type="line"/>
      <point x="146" y="-174"/>
      <point x="198" y="-185"/>
    </contour>
    <contour>
      <point x="283" y="53" type="curve"/>
      <point x="151" y="100"/>
      <point x="94" y="174"/>
      <point x="94" y="287" type="curve" smooth="yes"/>
      <point x="94" y="421"/>
      <point x="166" y="495"/>
      <point x="280" y="495" type="curve" smooth="yes"/>
      <point x="396" y="495"/>
      <point x="466" y="416"/>
      <point x="466" y="287" type="curve" smooth="yes"/>
      <point x="466" y="180"/>
      <point x="393" y="92"/>
    </contour>
  </outline>
</glyph>
<glyph name="Fhook" format="2">
  <advance width="560"/>
  <unicode hex="0191"/>
  <outline>
    <contour>
      <point x="85" y="-187" type="curve" smooth="yes"/>
      <point x="174" y="-187"/>
      <point x="184" y="-121"/>
      <point x="184" y="-25" type="curve" smooth="yes"/>
      <point x="184" y="351" type="line"/>
      <point x="461" y="351" type="line"/>
      <point x="461" y="382" type="line"/>
      <point x="184" y="382" type="line"/>
      <point x="184" y="662" type="line"/>
      <point x="496" y="662" type="line"/>
      <point x="496" y="693" type="line"/>
      <point x="149" y="693" type="line"/>
      <point x="149" y="-27" type="line" smooth="yes"/>
      <point x="149" y="-100"/>
      <point x="143" y="-155"/>
      <point x="85" y="-155" type="curve" smooth="yes"/>
      <point x="69" y="-155"/>
      <point x="51" y="-152"/>
      <point x="39" y="-148" type="curve"/>
      <point x="33" y="-179" type="line"/>
      <point x="46" y="-184"/>
      <point x="62" y="-187"/>
    </contour>
  </outline>
</glyph>
<glyph name="Phook" format="2">
  <advance width="560"/>
  <unicode hex="01A4"/>
  <outline>
    <contour>
      <point x="206" y="0" type="line"/>
      <point x="241" y="0" type="line"/>
      <point x="241" y="282" type="line"/>
      <point x="307" y="282" type="line" smooth="yes"/>
      <point x="435" y="282"/>
      <point x="511" y="359"/>
      <point x="511" y="488" type="curve" smooth="yes"/>
      <point x="511" y="630"/>
      <point x="443" y="700"/>
      <point x="303" y="700" type="curve" smooth="yes"/>
      <point x="113" y="700"/>
      <point x="59" y="644"/>
      <point x="59" y="542" type="curve" smooth="yes"/>
      <point x="59" y="524"/>
      <point x="62" y="506"/>
      <point x="64" y="500" type="curve"/>
      <point x="92" y="505" type="line"/>
      <point x="90" y="512"/>
      <point x="89" y="527"/>
      <point x="89" y="544" type="curve" smooth="yes"/>
      <point x="89" y="609"/>
      <point x="117" y="651"/>
      <point x="206" y="663" type="curve"/>
    </contour>
    <contour>
      <point x="241" y="313" type="line"/>
      <point x="241" y="667" type="line"/>
      <point x="260" y="668"/>
      <point x="281" y="668"/>
      <point x="303" y="668" type="curve" smooth="yes"/>
      <point x="418" y="668"/>
      <point x="475" y="609"/>
      <point x="475" y="489" type="curve" smooth="yes"/>
      <point x="475" y="378"/>
      <point x="413" y="313"/>
      <point x="307" y="313" type="curve" smooth="yes"/>
    </contour>
  </outline>
</glyph>
<glyph name="wynn" format="2">
  <advance width="560"/>
  <unicode hex="01BF"/>
  <outline>
    <contour>
      <point x="96" y="-185" type="line"/>
      <point x="129" y="-185" type="line"/>
      <point x="129" y="-47" type="line"/>
      <point x="385" y="18"/>
      <point x="504" y="126"/>
      <point x="504" y="293" type="curve" smooth="yes"/>
      <point x="504" y="433"/>
      <point x="413" y="523"/>
      <point x="270" y="523" type="curve" smooth="yes"/>
      <point x="207" y="523"/>
      <point x="145" y="508"/>
      <point x="96" y="484" type="curve"/>
    </contour>
    <contour>
      <point x="129" y="-16" type="curve"/>
      <point x="129" y="466" type="line"/>
      <point x="168" y="483"/>
      <point x="218" y="494"/>
      <point x="257" y="494" type="curve" smooth="yes"/>
      <point x="379" y="494"/>
      <point x="469" y="434"/>
      <point x="469" y="293" type="curve" smooth="yes"/>
      <point x="469" y="145"/>
      <point x="355" y="41"/>
    </contour>
  </outline>
</glyph>
<glyph name="LJ" format="2">
  <advance width="560"/>
  <unicode hex="01C7"/>
  <outline>
    <contour>
      <point x="67" y="0" type="line"/>
      <point x="269" y="0" type="line"/>
      <point x="269" y="31" type="line"/>
      <point x="102" y="31" type="line"/>
      <point x="102" y="693" type="line"/>
      <point x="67" y="693" type="line"/>
    </contour>
    <contour>
      <point x="325" y="0" type="line"/>
      <point x="458" y="0"/>
      <point x="511" y="55"/>
      <point x="511" y="194" type="curve" smooth="yes"/>
      <point x="511" y="693" type="line"/>
      <point x="476" y="693" type="line"/>
      <point x="476" y="194" type="line" smooth="yes"/>
      <point x="476" y="77"/>
      <point x="433" y="30"/>
      <point x="325" y="30" type="curve"/>
    </contour>
  </outline>
</glyph>
<glyph name="Nj" format="2">
  <advance width="560"/>
  <unicode hex="01CB"/>
  <outline>
    <contour>
      <point x="68" y="0" type="line"/>
      <point x="103" y="0" type="line"/>
      <point x="103" y="525" type="line"/>
      <point x="100" y="619" type="line"/>
      <point x="158" y="413"/>
      <point x="216" y="206"/>
      <point x="274" y="0" type="curve"/>
      <point x="312" y="0" type="line"/>
      <point x="312" y="693" type="line"/>
      <point x="277" y="693" type="line"/>
      <point x="277" y="177" type="line"/>
      <point x="280" y="98" type="line"/>
      <point x="114" y="693" type="line"/>
      <point x="68" y="693" type="line"/>
    </contour>
    <contour>
      <point x="336" y="-187" type="curve" smooth="yes"/>
      <point x="454" y="-187"/>
      <point x="480" y="-103"/>
      <point x="480" y="-1" type="curve" smooth="yes"/>
      <point x="480" y="513" type="line"/>
      <point x="446" y="513" type="line"/>
      <point x="446" y="-1" type="line" smooth="yes"/>
      <point x="446" y="-87"/>
      <point x="433" y="-155"/>
      <point x="336" y="-155" type="curve" smooth="yes"/>
      <point x="325" y="-155"/>
      <point x="304" y="-152"/>
      <point x="295" y="-149" type="curve"/>
      <point x="290" y="-179" type="line"/>
      <point x="299" y="-183"/>
      <point x="324" y="-187"/>
    </contour>
    <contour>
      <point x="462" y="629" type="curve" smooth="yes"/>
      <point x="485" y="629"/>
      <point x="505" y="647"/>
      <point x="505" y="674" type="curve" smooth="yes"/>
      <point x="505" y="700"/>
      <point x="485" y="718"/>
      <point x="462" y="718" type="curve" smooth="yes"/>
      <point x="439" y="718"/>
      <point x="419" y="700"/>
      <point x="419" y="674" type="curve" smooth="yes"/>
      <point x="419" y="647"/>
      <point x="439" y="629"/>
    </contour>
  </outline>
</glyph>
<glyph name="nj" format="2">
  <advance width="560"/>
  <unicode hex="01CC"/>
  <outline>
    <contour>
      <point x="341" y="-187" type="curve" smooth="yes"/>
      <point x="458" y="-187"/>
      <point x="484" y="-103"/>
      <point x="484" y="-1" type="curve"/>
      <point x="484" y="513" type="line"/>
      <point x="451" y="513" type="line"/>
      <point x="451" y="-1" type="line" smooth="yes"/>
      <point x="451" y="-88"/>
      <point x="438" y="-157"/>
      <point x="341" y="-157" type="curve" smooth="yes"/>
      <point x="330" y="-157"/>
      <point x="309" y="-154"/>
      <point x="300" y="-151" type="curve"/>
      <point x="295" y="-179" type="line"/>
      <point x="304" y="-183"/>
      <point x="329" y="-187"/>
    </contour>
    <contour>
      <point x="67" y="0" type="line"/>
      <point x="100" y="0" type="line"/>
      <point x="100" y="472" type="line"/>
      <point x="127" y="485"/>
      <point x="159" y="492"/>
      <point x="182" y="492" type="curve" smooth="yes"/>
      <point x="255" y="492"/>
      <point x="296" y="459"/>
      <point x="296" y="363" type="curve" smooth="yes"/>
      <point x="296" y="0" type="line"/>
      <point x="329" y="0" type="line"/>
      <point x="329" y="363" type="line" smooth="yes"/>
      <point x="329" y="481"/>
      <point x="272" y="522"/>
      <point x="181" y="522" type="curve" smooth="yes"/>
      <point x="147" y="522"/>
      <point x="111" y="514"/>
      <point x="67" y="493" type="curve"/>
    </contour>
    <contour>
      <point x="469" y="629" type="curve" smooth="yes"/>
      <point x="492" y="629"/>
      <point x="512" y="647"/>
      <point x="512" y="674" type="curve" smooth="yes"/>
      <point x="512" y="700"/>
      <point x="492" y="718"/>
      <point x="469" y="718" type="curve" smooth="yes"/>
      <point x="446" y="718"/>
      <point x="426" y="700"/>
      <point x="426" y="674" type="curve" smooth="yes"/>
      <point x="426" y="647"/>
      <point x="446" y="629"/>
    </contour>
  </outline>
</glyph>
<glyph name="Gstroke" format="2">
  <advance width="560"/>
  <unicode hex="01E4"/>
  <outline>
    <contour>
      <point x="322" y="-15" type="curve" smooth="yes"/>
      <point x="383" y="-15"/>
      <point x="439" y="1"/>
      <point x="474" y="20" type="curve"/>
      <point x="474" y="202" type="line"/>
      <point x="531" y="202" type="line"/>
      <point x="531" y="232" type="line"/>
      <point x="474" y="232" type="line"/>
      <point x="474" y="353" type="line"/>
      <point x="439" y="353" type="line"/>
      <point x="439" y="232" type="line"/>
      <point x="345" y="232" type="line"/>
      <point x="345" y="202" type="line"/>
      <point x="439" y="202" type="line"/>
      <point x="439" y="38" type="line"/>
      <point x="414" y="27"/>
      <point x="372" y="17"/>
      <point x="322" y="17" type="curve" smooth="yes"/>
      <point x="190" y="17"/>
      <point x="110" y="145"/>
      <point x="110" y="347" type="curve" smooth="yes"/>
      <point x="110" y="538"/>
      <point x="197" y="677"/>
      <point x="322" y="677" type="curve" smooth="yes"/>
      <point x="375" y="677"/>
      <point x="423" y="656"/>
      <point x="449" y="634" type="curve"/>
      <point x="467" y="663" type="line"/>
      <point x="426" y="694"/>
      <point x="382" y="709"/>
      <point x="322" y="709" type="curve" smooth="yes"/>
      <point x="176" y="709"/>
      <point x="74" y="561"/>
      <point x="74" y="347" type="curve" smooth="yes"/>
      <point x="74" y="129"/>
      <point x="166" y="-15"/>
    </contour>
  </outline>
</glyph>
<glyph name="Dz" format="2">
  <advance width="560"/>
  <unicode hex="01F2"/>
  <anchor x="280" y="685" name="top"/>
  <outline>
    <contour>
      <point x="126" y="-4" type="curve" smooth="yes"/>
      <point x="239" y="-4"/>
      <point x="294" y="111"/>
      <point x="294" y="347" type="curve" smooth="yes"/>
      <point x="294" y="583"/>
      <point x="239" y="698"/>
      <point x="127" y="698" type="curve" smooth="yes"/>
      <point x="100" y="698"/>
      <point x="76" y="695"/>
      <point x="55" y="690" type="curve"/>
      <point x="55" y="4" type="line"/>
      <point x="74" y="-1"/>
      <point x="102" y="-4"/>
    </contour>
    <contour>
      <point x="127" y="28" type="curve" smooth="yes"/>
      <point x="117" y="28"/>
      <point x="101" y="29"/>
      <point x="90" y="32" type="curve"/>
      <point x="90" y="663" type="line"/>
      <point x="101" y="665"/>
      <point x="119" y="666"/>
      <point x="129" y="666" type="curve" smooth="yes"/>
      <point x="216" y="666"/>
      <point x="258" y="561"/>
      <point x="258" y="347" type="curve" smooth="yes"/>
      <point x="258" y="133"/>
      <point x="215" y="28"/>
    </contour>
    <contour>
      <point x="352" y="0" type="line"/>
      <point x="522" y="0" type="line"/>
      <point x="522" y="28" type="line"/>
      <point x="383" y="28" type="line"/>
      <point x="419" y="171"/>
      <point x="473" y="357"/>
      <point x="527" y="488" type="curve"/>
      <point x="527" y="513" type="line"/>
      <point x="372" y="513" type="line"/>
      <point x="372" y="485" type="line"/>
      <point x="495" y="485" type="line"/>
      <point x="445" y="367"/>
      <point x="388" y="171"/>
      <point x="352" y="23" type="curve"/>
    </contour>
  </outline>
</glyph>
<glyph name="Wynn" format="2">
  <advance width="560"/>
  <unicode hex="01F7"/>
  <outline>
    <contour>
      <point x="94" y="-185" type="line"/>
      <point x="129" y="-185" type="line"/>
      <point x="129" y="1" type="line"/>
      <point x="333" y="91"/>
      <point x="504" y="202"/>
      <point x="504" y="453" type="curve" smooth="yes"/>
      <point x="504" y="609"/>
      <point x="409" y="697"/>
      <point x="277" y="697" type="curve" smooth="yes"/>
      <point x="222" y="697"/>
      <point x="159" y="682"/>
      <point x="94" y="650" type="curve"/>
    </contour>
    <contour>
      <point x="129" y="37" type="curve"/>
      <point x="129" y="630" type="line"/>
      <point x="181" y="653"/>
      <point x="229" y="665"/>
      <point x="277" y="665" type="curve" smooth="yes"/>
      <point x="392" y="665"/>
      <point x="468" y="585"/>
      <point x="468" y="453" type="curve" smooth="yes"/>
      <point x="468" y="222"/>
      <point x="315" y="119"/>
    </contour>
  </outline>
</glyph>
<glyph name="Nlongrightleg" format="2">
  <advance width="560"/>
  <unicode hex="0220"/>
  <outline>
    <contour>
      <point x="478" y="-185" type="line"/>
      <point x="513" y="-185" type="line"/>
      <point x="513" y="442" type="line" smooth="yes"/>
      <point x="513" y="629"/>
      <point x="442" y="703"/>
      <point x="271" y="703" type="curve" smooth="yes"/>
      <point x="207" y="703"/>
      <point x="140" y="689"/>
      <point x="75" y="662" type="curve"/>
      <point x="75" y="0" type="line"/>
      <point x="110" y="0" type="line"/>
      <point x="110" y="641" type="line"/>
      <point x="143" y="657"/>
      <point x="211" y="671"/>
      <point x="271" y="671" type="curve" smooth="yes"/>
      <point x="423" y="671"/>
      <point x="478" y="587"/>
      <point x="478" y="433" type="curve" smooth="yes"/>
    </contour>
  </outline>
</glyph>
<glyph name="dcurl" format="2">
  <advance width="560"/>
  <unicode hex="0221"/>
  <outline>
    <contour>
      <point x="418" y="-172" type="curve" smooth="yes"/>
      <point x="481" y="-172"/>
      <point x="526" y="-121"/>
      <point x="526" y="-48" type="curve" smooth="yes"/>
      <point x="526" y="18"/>
      <point x="484" y="65"/>
      <point x="424" y="65" type="curve" smooth="yes"/>
      <point x="395" y="65"/>
      <point x="367" y="49"/>
      <point x="337" y="18" type="curve"/>
      <point x="337" y="776" type="line"/>
      <point x="304" y="769" type="line"/>
      <point x="304" y="487" type="line"/>
      <point x="279" y="510"/>
      <point x="244" y="525"/>
      <point x="210" y="525" type="curve" smooth="yes"/>
      <point x="105" y="525"/>
      <point x="43" y="426"/>
      <point x="43" y="258" type="curve" smooth="yes"/>
      <point x="43" y="91"/>
      <point x="105" y="-7"/>
      <point x="210" y="-7" type="curve" smooth="yes"/>
      <point x="246" y="-7"/>
      <point x="277" y="-2"/>
      <point x="304" y="8" type="curve"/>
      <point x="304" y="-2"/>
      <point x="303" y="-12"/>
      <point x="303" y="-22" type="curve"/>
      <point x="206" y="-137" type="line"/>
      <point x="228" y="-156" type="line"/>
      <point x="304" y="-65" type="line"/>
      <point x="311" y="-129"/>
      <point x="356" y="-172"/>
    </contour>
    <contour>
      <point x="417" y="-142" type="curve" smooth="yes"/>
      <point x="369" y="-142"/>
      <point x="335" y="-101"/>
      <point x="336" y="-42" type="curve" smooth="yes"/>
      <point x="336" y="-26" type="line"/>
      <point x="377" y="22"/>
      <point x="398" y="35"/>
      <point x="423" y="35" type="curve" smooth="yes"/>
      <point x="463" y="35"/>
      <point x="491" y="1"/>
      <point x="491" y="-48" type="curve" smooth="yes"/>
      <point x="491" y="-107"/>
      <point x="464" y="-142"/>
    </contour>
    <contour>
      <point x="211" y="23" type="curve" smooth="yes"/>
      <point x="127" y="23"/>
      <point x="78" y="110"/>
      <point x="78" y="258" type="curve" smooth="yes"/>
      <point x="78" y="407"/>
      <point x="127" y="495"/>
      <point x="211" y="495" type="curve" smooth="yes"/>
      <point x="247" y="495"/>
      <point x="279" y="478"/>
      <point x="304" y="451" type="curve"/>
      <point x="304" y="40" type="line"/>
      <point x="281" y="29"/>
      <point x="245" y="23"/>
    </contour>
  </outline>
</glyph>
<glyph name="Ecedilla" format="2">
  <advance width="560"/>
  <unicode hex="0228"/>
  <outline>
    <contour>
      <point x="290" y="-189" type="curve" smooth="yes"/>
      <point x="346" y="-189"/>
      <point x="380" y="-160"/>
      <point x="380" y="-121" type="curve" smooth="yes"/>
      <point x="380" y="-89"/>
      <point x="357" y="-66"/>
      <point x="311" y="-49" type="curve"/>
      <point x="317" y="-35"/>
      <point x="325" y="-17"/>
      <point x="334" y="0" type="curve"/>
      <point x="499" y="0" type="line"/>
      <point x="499" y="31" type="line"/>
      <point x="167" y="31" type="line"/>
      <point x="167" y="344" type="line"/>
      <point x="439" y="344" type="line"/>
      <point x="439" y="375" type="line"/>
      <point x="167" y="375" type="line"/>
      <point x="167" y="662" type="line"/>
      <point x="476" y="662" type="line"/>
      <point x="476" y="693" type="line"/>
      <point x="132" y="693" type="line"/>
      <point x="132" y="0" type="line"/>
      <point x="305" y="0" type="line"/>
      <point x="295" y="-20"/>
      <point x="283" y="-45"/>
      <point x="274" y="-65" type="curve"/>
      <point x="289" y="-70" type="line" smooth="yes"/>
      <point x="333" y="-86"/>
      <point x="348" y="-97"/>
      <point x="348" y="-122" type="curve" smooth="yes"/>
      <point x="348" y="-146"/>
      <point x="327" y="-160"/>
      <point x="286" y="-160" type="curve" smooth="yes"/>
      <point x="270" y="-160"/>
      <point x="250" y="-157"/>
      <point x="235" y="-152" type="curve"/>
      <point x="230" y="-179" type="line"/>
      <point x="248" y="-186"/>
      <point x="268" y="-189"/>
    </contour>
  </outline>
</glyph>
<glyph name="Otildemacron" format="2">
  <advance width="560"/>
  <unicode hex="022C"/>
  <outline>
    <contour>
      <point x="280" y="-15" type="curve" smooth="yes"/>
      <point x="432" y="-15"/>
      <point x="522" y="119"/>
      <point x="522" y="347" type="curve" smooth="yes"/>
      <point x="522" y="575"/>
      <point x="432" y="709"/>
      <point x="280" y="709" type="curve" smooth="yes"/>
      <point x="128" y="709"/>
      <point x="38" y="575"/>
      <point x="38" y="347" type="curve" smooth="yes"/>
      <point x="38" y="119"/>
      <point x="128" y="-15"/>
    </contour>
    <contour>
      <point x="280" y="17" type="curve" smooth="yes"/>
      <point x="151" y="17"/>
      <point x="74" y="140"/>
      <point x="74" y="347" type="curve" smooth="yes"/>
      <point x="74" y="554"/>
      <point x="151" y="677"/>
      <point x="280" y="677" type="curve" smooth="yes"/>
      <point x="409" y="677"/>
      <point x="486" y="554"/>
      <point x="486" y="347" type="curve" smooth="yes"/>
      <point x="486" y="140"/>
      <point x="409" y="17"/>
    </contour>
    <contour>
      <point x="163" y="764" type="line"/>
      <point x="184" y="804"/>
      <point x="196" y="813"/>
      <point x="221" y="813" type="curve" smooth="yes"/>
      <point x="239" y="814"/>
      <point x="254" y="804"/>
      <point x="278" y="791" type="curve" smooth="yes"/>
      <point x="302" y="779"/>
      <point x="323" y="770"/>
      <point x="343" y="770" type="curve" smooth="yes"/>
      <point x="380" y="770"/>
      <point x="397" y="783"/>
      <point x="425" y="838" type="curve"/>
      <point x="403" y="850" type="line"/>
      <point x="383" y="814"/>
      <point x="373" y="801"/>
      <point x="349" y="801" type="curve" smooth="yes"/>
      <point x="334" y="801"/>
      <point x="320" y="807"/>
      <point x="288" y="823" type="curve" smooth="yes"/>
      <point x="256" y="839"/>
      <point x="243" y="844"/>
      <point x="223" y="844" type="curve" smooth="yes"/>
      <point x="186" y="844"/>
      <point x="169" y="831"/>
      <point x="141" y="776" type="curve"/>
    </contour>
    <contour>
      <point x="160" y="895" type="line"/>
      <point x="400" y="895" type="line"/>
      <point x="400" y="925" type="line"/>
      <point x="160" y="925" type="line"/>
    </contour>
  </outline>
</glyph>
<glyph name="lcurl" format="2">
  <advance width="560"/>
  <unicode hex="0234"/>
  <outline>
    <contour>
      <point x="345" y="-172" type="curve" smooth="yes"/>
      <point x="422" y="-172"/>
      <point x="468" y="-126"/>
      <point x="468" y="-48" type="curve" smooth="yes"/>
      <point x="468" y="18"/>
      <point x="420" y="65"/>
      <point x="351" y="65" type="curve" smooth="yes"/>
      <point x="318" y="65"/>
      <point x="288" y="49"/>
      <point x="254" y="18" type="curve"/>
      <point x="254" y="771" type="line"/>
      <point x="95" y="771" type="line"/>
      <point x="95" y="743" type="line"/>
      <point x="221" y="743" type="line"/>
      <point x="221" y="8" type="line" smooth="yes"/>
      <point x="221" y="-2"/>
      <point x="221" y="-11"/>
      <point x="221" y="-21" type="curve"/>
      <point x="123" y="-137" type="line"/>
      <point x="145" y="-156" type="line"/>
      <point x="221" y="-65" type="line"/>
      <point x="228" y="-129"/>
      <point x="277" y="-172"/>
    </contour>
    <contour>
      <point x="344" y="-142" type="curve" smooth="yes"/>
      <point x="290" y="-142"/>
      <point x="253" y="-101"/>
      <point x="253" y="-42" type="curve" smooth="yes"/>
      <point x="253" y="-26" type="line"/>
      <point x="298" y="22"/>
      <point x="323" y="35"/>
      <point x="350" y="35" type="curve" smooth="yes"/>
      <point x="399" y="35"/>
      <point x="433" y="1"/>
      <point x="433" y="-48" type="curve" smooth="yes"/>
      <point x="433" y="-107"/>
      <point x="400" y="-142"/>
    </contour>
  </outline>
</glyph>
<glyph name="Astroke" format="2">
  <advance width="560"/>
  <unicode hex="023A"/>
  <outline>
    <contour>
      <point x="169" y="-94" type="line"/>
      <point x="271" y="207" type="line"/>
      <point x="440" y="207" type="line"/>
      <point x="507" y="0" type="line"/>
      <point x="546" y="0" type="line"/>
      <point x="476" y="213"/>
      <point x="426" y="357"/>
      <point x="371" y="501" type="curve"/>
      <point x="459" y="761" type="line"/>
      <point x="429" y="772" type="line"/>
      <point x="353" y="548" type="line"/>
      <point x="294" y="693" type="line"/>
      <point x="264" y="693" type="line"/>
      <point x="169" y="458"/>
      <point x="94" y="242"/>
      <point x="14" y="0" type="curve"/>
      <point x="52" y="0" type="line"/>
      <point x="120" y="207" type="line"/>
      <point x="237" y="207" type="line"/>
      <point x="139" y="-83" type="line"/>
    </contour>
    <contour>
      <point x="282" y="238" type="line"/>
      <point x="353" y="449" type="line"/>
      <point x="382" y="372"/>
      <point x="405" y="308"/>
      <point x="429" y="238" type="curve"/>
    </contour>
    <contour>
      <point x="131" y="238" type="line"/>
      <point x="184" y="392"/>
      <point x="234" y="527"/>
      <point x="278" y="645" type="curve"/>
      <point x="297" y="595"/>
      <point x="316" y="546"/>
      <point x="335" y="496" type="curve"/>
      <point x="248" y="238" type="line"/>
    </contour>
  </outline>
</glyph>
<glyph name="estroke" format="2">
  <advance width="560"/>
  <unicode hex="0247"/>
  <anchor x="280" y="0" name="bottom"/>
  <anchor x="280" y="582" name="top"/>
  <outline>
    <contour>
      <point x="181" y="-76" type="line"/>
      <point x="207" y="10" type="line"/>
      <point x="240" y="-1"/>
      <point x="277" y="-7"/>
      <point x="321" y="-7" type="curve" smooth="yes"/>
      <point x="373" y="-7"/>
      <point x="432" y="7"/>
      <point x="460" y="24" type="curve"/>
      <point x="452" y="52" type="line"/>
      <point x="425" y="36"/>
      <point x="372" y="23"/>
      <point x="322" y="23" type="curve" smooth="yes"/>
      <point x="281" y="23"/>
      <point x="246" y="29"/>
      <point x="217" y="40" type="curve"/>
      <point x="284" y="259" type="line"/>
      <point x="494" y="259" type="line"/>
      <point x="495" y="271"/>
      <point x="496" y="283"/>
      <point x="496" y="294" type="curve" smooth="yes"/>
      <point x="496" y="398"/>
      <point x="453" y="485"/>
      <point x="363" y="515" type="curve"/>
      <point x="390" y="601" type="line"/>
      <point x="361" y="610" type="line"/>
      <point x="334" y="522" type="line"/>
      <point x="321" y="524"/>
      <point x="307" y="525"/>
      <point x="293" y="525" type="curve" smooth="yes"/>
      <point x="142" y="525"/>
      <point x="65" y="398"/>
      <point x="65" y="268" type="curve" smooth="yes"/>
      <point x="65" y="142"/>
      <point x="102" y="61"/>
      <point x="179" y="22" type="curve"/>
      <point x="152" y="-67" type="line"/>
    </contour>
    <contour>
      <point x="189" y="54" type="line"/>
      <point x="131" y="89"/>
      <point x="102" y="157"/>
      <point x="100" y="259" type="curve"/>
      <point x="253" y="259" type="line"/>
    </contour>
    <contour>
      <point x="100" y="287" type="line"/>
      <point x="108" y="394"/>
      <point x="169" y="495"/>
      <point x="293" y="495" type="curve" smooth="yes"/>
      <point x="304" y="495"/>
      <point x="315" y="494"/>
      <point x="325" y="493" type="curve"/>
      <point x="261" y="287" type="line"/>
    </contour>
    <contour>
      <point x="293" y="287" type="line"/>
      <point x="354" y="485" type="line"/>
      <point x="422" y="462"/>
      <point x="461" y="395"/>
      <point x="461" y="287" type="curve"/>
    </contour>
  </outline>
</glyph>
<glyph name="Qhooktail" format="2">
  <advance width="560"/>
  <unicode hex="024A"/>
  <anchor x="280" y="0" name="bottom"/>
  <anchor x="280" y="685" name="top"/>
  <outline>
    <contour>
      <point x="528" y="-187" type="curve" smooth="yes"/>
      <point x="539" y="-187"/>
      <point x="552" y="-185"/>
      <point x="561" y="-180" type="curve"/>
      <point x="557" y="-149" type="line"/>
      <point x="552" y="-152"/>
      <point x="540" y="-155"/>
      <point x="532" y="-155" type="curve" smooth="yes"/>
      <point x="496" y="-155"/>
      <point x="481" y="-126"/>
      <point x="481" y="-59" type="curve" smooth="yes"/>
      <point x="481" y="347" type="line" smooth="yes"/>
      <point x="481" y="571"/>
      <point x="400" y="703"/>
      <point x="263" y="703" type="curve" smooth="yes"/>
      <point x="127" y="703"/>
      <point x="46" y="570"/>
      <point x="46" y="346" type="curve" smooth="yes"/>
      <point x="46" y="122"/>
      <point x="127" y="-10"/>
      <point x="263" y="-10" type="curve" smooth="yes"/>
      <point x="349" y="-10"/>
      <point x="416" y="56"/>
      <point x="449" y="169" type="curve"/>
      <point x="449" y="-66" type="line" smooth="yes"/>
      <point x="449" y="-151"/>
      <point x="478" y="-187"/>
    </contour>
    <contour>
      <point x="262" y="22" type="curve" smooth="yes"/>
      <point x="149" y="22"/>
      <point x="82" y="142"/>
      <point x="82" y="346" type="curve" smooth="yes"/>
      <point x="82" y="550"/>
      <point x="149" y="671"/>
      <point x="262" y="671" type="curve" smooth="yes"/>
      <point x="377" y="671"/>
      <point x="445" y="550"/>
      <point x="445" y="346" type="curve" smooth="yes"/>
      <point x="445" y="142"/>
      <point x="377" y="22"/>
    </contour>
  </outline>
</glyph>
<glyph name="Ystroke" format="2">
  <advance width="560"/>
  <unicode hex="024E"/>
  <anchor x="280" y="0" name="bottom"/>
  <anchor x="280" y="685" name="top"/>
  <outline>
    <contour>
      <point x="262" y="0" type="line"/>
      <point x="297" y="0" type="line"/>
      <point x="297" y="262" type="line"/>
      <point x="345" y="339"/>
      <point x="387" y="408"/>
      <point x="426" y="479" type="curve"/>
      <point x="530" y="479" type="line"/>
      <point x="530" y="509" type="line"/>
      <point x="442" y="509" type="line"/>
      <point x="473" y="567"/>
      <point x="502" y="626"/>
      <point x="530" y="693" type="curve"/>
      <point x="492" y="693" type="line"/>
      <point x="468" y="632"/>
      <point x="441" y="575"/>
      <point x="406" y="509" type="curve"/>
      <point x="156" y="509" type="line"/>
      <point x="125" y="570"/>
      <point x="96" y="632"/>
      <point x="70" y="693" type="curve"/>
      <point x="30" y="693" type="line"/>
      <point x="60" y="628"/>
      <point x="89" y="567"/>
      <point x="119" y="509" type="curve"/>
      <point x="30" y="509" type="line"/>
      <point x="30" y="479" type="line"/>
      <point x="135" y="479" type="line"/>
      <point x="176" y="402"/>
      <point x="218" y="330"/>
      <point x="262" y="260" type="curve"/>
    </contour>
    <contour>
      <point x="280" y="290" type="curve"/>
      <point x="243" y="350"/>
      <point x="206" y="414"/>
      <point x="172" y="479" type="curve"/>
      <point x="389" y="479" type="line"/>
      <point x="359" y="425"/>
      <point x="324" y="364"/>
    </contour>
  </outline>
</glyph>
<glyph name="apostrophemod" format="2">
  <advance width="560"/>
  <unicode hex="02BC"/>
  <outline>
    <contour>
      <point x="269" y="577" type="line"/>
      <point x="296" y="631"/>
      <point x="316" y="704"/>
      <point x="316" y="763" type="curve"/>
      <point x="316" y="766"/>
      <point x="316" y="774"/>
      <point x="316" y="776" type="curve"/>
      <point x="281" y="776" type="line"/>
      <point x="281" y="770"/>
      <point x="281" y="763"/>
      <point x="281" y="756" type="curve" smooth="yes"/>
      <point x="281" y="706"/>
      <point x="262" y="632"/>
      <point x="241" y="588" type="curve"/>
    </contour>
  </outline>
</glyph>
<glyph name="dotaccent" format="2">
  <advance width="560"/>
  <unicode hex="02D9"/>
  <outline>
    <contour>
      <point x="280" y="620" type="curve" smooth="yes"/>
      <point x="310" y="620"/>
      <point x="331" y="641"/>
      <point x="331" y="673" type="curve" smooth="yes"/>
      <point x="331" y="704"/>
      <point x="310" y="726"/>
      <point x="280" y="726" type="curve" smooth="yes"/>
      <point x="251" y="726"/>
      <point x="229" y="704"/>
      <point x="229" y="673" type="curve" smooth="yes"/>
      <point x="229" y="641"/>
      <point x="251" y="620"/>
    </contour>
  </outline>
</glyph>
<glyph name="dblgravecomb" format="2">
  <unicode hex="030F"/>
  <anchor x="280" y="513" name="_top"/>
  <outline>
    <contour>
      <point x="256" y="588" type="line"/>
      <point x="275" y="603" type="line"/>
      <point x="155" y="765" type="line"/>
      <point x="128" y="741" type="line"/>
    </contour>
    <contour>
      <point x="404" y="588" type="line"/>
      <point x="423" y="603" type="line"/>
      <point x="303" y="765" type="line"/>
      <point x="276" y="741" type="line"/>
    </contour>
  </outline>
</glyph>
<glyph name="breveinvertedcomb" format="2">
  <unicode hex="0311"/>
  <anchor x="280" y="513" name="_top"/>
  <outline>
    <contour>
      <point x="170" y="616" type="curve"/>
      <point x="198" y="616" type="line"/>
      <point x="201" y="671"/>
      <point x="226" y="702"/>
      <point x="280" y="702" type="curve" smooth="yes"/>
      <point x="334" y="702"/>
      <point x="359" y="671"/>
      <point x="362" y="616" type="curve"/>
      <point x="390" y="616" type="line"/>
      <point x="390" y="687"/>
      <point x="355" y="732"/>
      <point x="280" y="732" type="curve" smooth="yes"/>
      <point x="205" y="732"/>
      <point x="170" y="687"/>
    </contour>
  </outline>
</glyph>
<glyph name="commaturnedabovecomb" format="2">
  <unicode hex="0312"/>
  <anchor x="280" y="512" name="_top"/>
  <anchor x="280" y="765" name="top"/>
  <outline>
    <contour>
      <point x="241" y="618" type="curve"/>
      <point x="277" y="618" type="line"/>
      <point x="277" y="630" type="line"/>
      <point x="277" y="697"/>
      <point x="292" y="727"/>
      <point x="337" y="751" type="curve"/>
      <point x="324" y="775" type="line"/>
      <point x="246" y="744"/>
      <point x="241" y="655"/>
    </contour>
  </outline>
</glyph>
<glyph name="strokeshortcomb" format="2">
  <unicode hex="0335"/>
  <anchor x="281" y="277" name="_center"/>
  <outline>
    <contour>
      <point x="114" y="263" type="line"/>
      <point x="447" y="263" type="line"/>
      <point x="447" y="291" type="line"/>
      <point x="114" y="291" type="line"/>
    </contour>
  </outline>
</glyph>
<glyph name="Sigma" format="2">
  <advance width="560"/>
  <unicode hex="03A3"/>
  <outline>
    <contour>
      <point x="65" y="0" type="line"/>
      <point x="501" y="0" type="line"/>
      <point x="501" y="31" type="line"/>
      <point x="106" y="31" type="line"/>
      <point x="165" y="125"/>
      <point x="250" y="238"/>
      <point x="358" y="367" type="curve"/>
      <point x="279" y="465"/>
      <point x="201" y="564"/>
      <point x="122" y="662" type="curve"/>
      <point x="497" y="662" type="line"/>
      <point x="497" y="693" type="line"/>
      <point x="78" y="693" type="line"/>
      <point x="78" y="664" type="line"/>
      <point x="157" y="565"/>
      <point x="237" y="466"/>
      <point x="316" y="367" type="curve"/>
      <point x="210" y="242"/>
      <point x="140" y="143"/>
      <point x="65" y="29" type="curve"/>
    </contour>
  </outline>
</glyph>
<glyph name="tau" format="2">
  <advance width="560"/>
  <unicode hex="03C4"/>
  <outline>
    <contour>
      <point x="369" y="-10" type="curve" smooth="yes"/>
      <point x="410" y="-10"/>
      <point x="447" y="2"/>
      <point x="471" y="13" type="curve"/>
      <point x="463" y="41" type="line"/>
      <point x="434" y="27"/>
      <point x="399" y="20"/>
      <point x="369" y="20" type="curve" smooth="yes"/>
      <point x="280" y="20"/>
      <point x="237" y="59"/>
      <point x="237" y="181" type="curve" smooth="yes"/>
      <point x="237" y="485" type="line"/>
      <point x="452" y="485" type="line"/>
      <point x="452" y="513" type="line"/>
      <point x="85" y="513" type="line"/>
      <point x="85" y="485" type="line"/>
      <point x="204" y="485" type="line"/>
      <point x="204" y="181" type="line" smooth="yes"/>
      <point x="204" y="45"/>
      <point x="259" y="-10"/>
    </contour>
  </outline>
</glyph>
<glyph name="upsilon" format="2">
  <advance width="560"/>
  <unicode hex="03C5"/>
  <anchor x="279" y="582" name="top"/>
  <outline>
    <contour>
      <point x="278" y="-7" type="curve" smooth="yes"/>
      <point x="406" y="-7"/>
      <point x="468" y="67"/>
      <point x="468" y="218" type="curve" smooth="yes"/>
      <point x="468" y="513" type="line"/>
      <point x="435" y="513" type="line"/>
      <point x="435" y="218" type="line" smooth="yes"/>
      <point x="435" y="87"/>
      <point x="383" y="23"/>
      <point x="278" y="23" type="curve" smooth="yes"/>
      <point x="175" y="23"/>
      <point x="125" y="87"/>
      <point x="125" y="218" type="curve" smooth="yes"/>
      <point x="125" y="513" type="line"/>
      <point x="92" y="513" type="line"/>
      <point x="92" y="218" type="line" smooth="yes"/>
      <point x="92" y="67"/>
      <point x="153" y="-7"/>
    </contour>
  </outline>
</glyph>
<glyph name="phi" format="2">
  <advance width="560"/>
  <unicode hex="03C6"/>
  <outline>
    <contour>
      <point x="263" y="-185" type="line"/>
      <point x="296" y="-185" type="line"/>
      <point x="296" y="-8" type="line"/>
      <point x="436" y="-3"/>
      <point x="518" y="96"/>
      <point x="518" y="260" type="curve" smooth="yes"/>
      <point x="518" y="427"/>
      <point x="430" y="525"/>
      <point x="280" y="525" type="curve" smooth="yes"/>
      <point x="130" y="525"/>
      <point x="42" y="427"/>
      <point x="42" y="260" type="curve" smooth="yes"/>
      <point x="42" y="96"/>
      <point x="124" y="-3"/>
      <point x="263" y="-8" type="curve"/>
    </contour>
    <contour>
      <point x="263" y="22" type="line"/>
      <point x="146" y="27"/>
      <point x="77" y="115"/>
      <point x="77" y="260" type="curve" smooth="yes"/>
      <point x="77" y="401"/>
      <point x="146" y="488"/>
      <point x="263" y="495" type="curve"/>
    </contour>
    <contour>
      <point x="296" y="22" type="curve"/>
      <point x="296" y="495" type="line"/>
      <point x="414" y="488"/>
      <point x="483" y="401"/>
      <point x="483" y="260" type="curve" smooth="yes"/>
      <point x="483" y="115"/>
      <point x="414" y="27"/>
    </contour>
  </outline>
</glyph>
<glyph name="psi" format="2">
  <advance width="560"/>
  <unicode hex="03C8"/>
  <outline>
    <contour>
      <point x="263" y="-185" type="line"/>
      <point x="296" y="-185" type="line"/>
      <point x="296" y="-7" type="line"/>
      <point x="427" y="-7"/>
      <point x="505" y="94"/>
      <point x="505" y="264" type="curve" smooth="yes"/>
      <point x="505" y="513" type="line"/>
      <point x="470" y="513" type="line"/>
      <point x="470" y="266" type="line" smooth="yes"/>
      <point x="470" y="113"/>
      <point x="405" y="22"/>
      <point x="296" y="22" type="curve"/>
      <point x="296" y="513" type="line"/>
      <point x="263" y="513" type="line"/>
      <point x="263" y="22" type="line"/>
      <point x="153" y="22"/>
      <point x="88" y="113"/>
      <point x="88" y="266" type="curve" smooth="yes"/>
      <point x="88" y="513" type="line"/>
      <point x="55" y="513" type="line"/>
      <point x="55" y="264" type="line" smooth="yes"/>
      <point x="55" y="94"/>
      <point x="132" y="-7"/>
      <point x="263" y="-7" type="curve"/>
    </contour>
  </outline>
</glyph>
<glyph name="Dje-cy" format="2">
  <advance width="560"/>
  <unicode hex="0402"/>
  <outline>
    <contour>
      <point x="346" y="-1" type="curve" smooth="yes"/>
      <point x="435" y="-1"/>
      <point x="489" y="86"/>
      <point x="489" y="208" type="curve" smooth="yes"/>
      <point x="489" y="347"/>
      <point x="418" y="431"/>
      <point x="300" y="431" type="curve" smooth="yes"/>
      <point x="262" y="431"/>
      <point x="212" y="418"/>
      <point x="180" y="402" type="curve"/>
      <point x="180" y="662" type="line"/>
      <point x="411" y="662" type="line"/>
      <point x="411" y="693" type="line"/>
      <point x="34" y="693" type="line"/>
      <point x="34" y="662" type="line"/>
      <point x="145" y="662" type="line"/>
      <point x="145" y="0" type="line"/>
      <point x="180" y="0" type="line"/>
      <point x="180" y="368" type="line"/>
      <point x="206" y="383"/>
      <point x="266" y="399"/>
      <point x="298" y="399" type="curve" smooth="yes"/>
      <point x="394" y="399"/>
      <point x="453" y="326"/>
      <point x="453" y="208" type="curve" smooth="yes"/>
      <point x="453" y="95"/>
      <point x="411" y="31"/>
      <point x="345" y="31" type="curve" smooth="yes"/>
      <point x="336" y="31"/>
      <point x="325" y="32"/>
      <point x="315" y="33" type="curve"/>
      <point x="313" y="2" type="line"/>
      <point x="322" y="-1"/>
      <point x="332" y="-1"/>
    </contour>
  </outline>
</glyph>
<glyph name="E-cy" format="2">
  <advance width="560"/>
  <unicode hex="0404"/>
  <outline>
    <contour>
      <point x="346" y="-12" type="curve" smooth="yes"/>
      <point x="406" y="-12"/>
      <point x="466" y="2"/>
      <point x="505" y="25" type="curve"/>
      <point x="495" y="54" type="line"/>
      <point x="455" y="33"/>
      <point x="402" y="20"/>
      <point x="346" y="20" type="curve" smooth="yes"/>
      <point x="212" y="20"/>
      <point x="120" y="147"/>
      <point x="117" y="337" type="curve"/>
      <point x="422" y="337" type="line"/>
      <point x="422" y="368" type="line"/>
      <point x="117" y="368" type="line"/>
      <point x="124" y="550"/>
      <point x="215" y="675"/>
      <point x="341" y="675" type="curve" smooth="yes"/>
      <point x="397" y="675"/>
      <point x="448" y="658"/>
      <point x="482" y="637" type="curve"/>
      <point x="496" y="666" type="line"/>
      <point x="458" y="691"/>
      <point x="405" y="707"/>
      <point x="341" y="707" type="curve" smooth="yes"/>
      <point x="186" y="707"/>
      <point x="81" y="558"/>
      <point x="81" y="347" type="curve" smooth="yes"/>
      <point x="81" y="132"/>
      <point x="183" y="-12"/>
    </contour>
  </outline>
</glyph>
<glyph name="Dzhe-cy" format="2">
  <advance width="560"/>
  <unicode hex="040F"/>
  <outline>
    <contour>
      <point x="262" y="-185" type="line"/>
      <point x="297" y="-186" type="line"/>
      <point x="297" y="-1" type="line"/>
      <point x="503" y="0" type="line"/>
      <point x="503" y="693" type="line"/>
      <point x="468" y="693" type="line"/>
      <point x="468" y="31" type="line"/>
      <point x="92" y="31" type="line"/>
      <point x="92" y="693" type="line"/>
      <point x="57" y="693" type="line"/>
      <point x="57" y="0" type="line"/>
      <point x="262" y="0" type="line"/>
    </contour>
  </outline>
</glyph>
<glyph name="De-cy" format="2">
  <advance width="560"/>
  <unicode hex="0414"/>
  <outline>
    <contour>
      <point x="30" y="-185" type="line"/>
      <point x="65" y="-185" type="line"/>
      <point x="65" y="0" type="line"/>
      <point x="485" y="0" type="line"/>
      <point x="485" y="-185" type="line"/>
      <point x="520" y="-185" type="line"/>
      <point x="520" y="31" type="line"/>
      <point x="479" y="31" type="line"/>
      <point x="479" y="693" type="line"/>
      <point x="200" y="693" type="line"/>
      <point x="200" y="611" type="line"/>
      <point x="198" y="411"/>
      <point x="184" y="143"/>
      <point x="72" y="31" type="curve"/>
      <point x="30" y="31" type="line"/>
    </contour>
    <contour>
      <point x="116" y="31" type="line"/>
      <point x="219" y="152"/>
      <point x="233" y="414"/>
      <point x="235" y="601" type="curve"/>
      <point x="235" y="662" type="line"/>
      <point x="444" y="662" type="line"/>
      <point x="444" y="31" type="line"/>
    </contour>
  </outline>
</glyph>
<glyph name="Ii-cy" format="2">
  <advance width="560"/>
  <unicode hex="0418"/>
  <anchor x="532" y="0" name="bottomright"/>
  <anchor x="279" y="685" name="top"/>
  <outline>
    <contour>
      <point x="78" y="0" type="line"/>
      <point x="110" y="0" type="line"/>
      <point x="204" y="200"/>
      <point x="333" y="436"/>
      <point x="447" y="627" type="curve"/>
      <point x="447" y="0" type="line"/>
      <point x="482" y="0" type="line"/>
      <point x="482" y="693" type="line"/>
      <point x="448" y="693" type="line"/>
      <point x="318" y="477"/>
      <point x="190" y="246"/>
      <point x="113" y="82" type="curve"/>
      <point x="113" y="693" type="line"/>
      <point x="78" y="693" type="line"/>
    </contour>
  </outline>
</glyph>
<glyph name="Yeru-cy" format="2">
  <advance width="560"/>
  <unicode hex="042B"/>
  <anchor x="280" y="685" name="top"/>
  <outline>
    <contour>
      <point x="182" y="-6" type="curve" smooth="yes"/>
      <point x="315" y="-6"/>
      <point x="383" y="67"/>
      <point x="383" y="212" type="curve" smooth="yes"/>
      <point x="383" y="354"/>
      <point x="316" y="426"/>
      <point x="185" y="426" type="curve" smooth="yes"/>
      <point x="156" y="426"/>
      <point x="114" y="423"/>
      <point x="96" y="417" type="curve"/>
      <point x="96" y="693" type="line"/>
      <point x="61" y="693" type="line"/>
      <point x="61" y="10" type="line"/>
      <point x="88" y="-1"/>
      <point x="137" y="-6"/>
    </contour>
    <contour>
      <point x="181" y="26" type="curve" smooth="yes"/>
      <point x="155" y="26"/>
      <point x="118" y="30"/>
      <point x="96" y="35" type="curve"/>
      <point x="96" y="386" type="line"/>
      <point x="127" y="392"/>
      <point x="149" y="395"/>
      <point x="181" y="394" type="curve" smooth="yes"/>
      <point x="296" y="392"/>
      <point x="347" y="333"/>
      <point x="347" y="212" type="curve" smooth="yes"/>
      <point x="347" y="86"/>
      <point x="294" y="26"/>
    </contour>
    <contour>
      <point x="465" y="0" type="line"/>
      <point x="500" y="0" type="line"/>
      <point x="500" y="693" type="line"/>
      <point x="465" y="693" type="line"/>
    </contour>
  </outline>
</glyph>
<glyph name="ve-cy" format="2">
  <advance width="560"/>
  <unicode hex="0432"/>
  <outline>
    <contour>
      <point x="247" y="-7" type="curve" smooth="yes"/>
      <point x="402" y="-7"/>
      <point x="480" y="43"/>
      <point x="480" y="144" type="curve" smooth="yes"/>
      <point x="480" y="215"/>
      <point x="441" y="258"/>
      <point x="363" y="273" type="curve"/>
      <point x="419" y="292"/>
      <point x="456" y="338"/>
      <point x="456" y="391" type="curve" smooth="yes"/>
      <point x="456" y="483"/>
      <point x="394" y="523"/>
      <point x="257" y="523" type="curve" smooth="yes"/>
      <point x="201" y="523"/>
      <point x="144" y="515"/>
      <point x="99" y="502" type="curve"/>
      <point x="99" y="14" type="line"/>
      <point x="154" y="-1"/>
      <point x="199" y="-7"/>
    </contour>
    <contour>
      <point x="245" y="23" type="curve" smooth="yes"/>
      <point x="210" y="23"/>
      <point x="161" y="29"/>
      <point x="132" y="37" type="curve"/>
      <point x="132" y="259" type="line"/>
      <point x="273" y="259" type="line" smooth="yes"/>
      <point x="386" y="259"/>
      <point x="445" y="220"/>
      <point x="445" y="144" type="curve" smooth="yes"/>
      <point x="445" y="62"/>
      <point x="382" y="23"/>
    </contour>
    <contour>
      <point x="132" y="287" type="line"/>
      <point x="132" y="479" type="line"/>
      <point x="166" y="488"/>
      <point x="208" y="493"/>
      <point x="257" y="493" type="curve" smooth="yes"/>
      <point x="371" y="493"/>
      <point x="421" y="462"/>
      <point x="421" y="392" type="curve" smooth="yes"/>
      <point x="421" y="326"/>
      <point x="367" y="287"/>
      <point x="274" y="287" type="curve" smooth="yes"/>
    </contour>
  </outline>
</glyph>
<glyph name="zhe-cy" format="2">
  <advance width="560"/>
  <unicode hex="0436"/>
  <anchor x="492" y="0" name="bottomright"/>
  <anchor x="280" y="582" name="top"/>
  <outline>
    <contour>
      <point x="19" y="0" type="curve"/>
      <point x="53" y="0" type="line"/>
      <point x="114" y="114"/>
      <point x="200" y="218"/>
      <point x="264" y="260" type="curve"/>
      <point x="264" y="0" type="line"/>
      <point x="297" y="0" type="line"/>
      <point x="297" y="260" type="line"/>
      <point x="358" y="220"/>
      <point x="444" y="119"/>
      <point x="507" y="0" type="curve"/>
      <point x="542" y="0" type="line"/>
      <point x="490" y="106"/>
      <point x="397" y="225"/>
      <point x="328" y="276" type="curve"/>
      <point x="384" y="337"/>
      <point x="437" y="406"/>
      <point x="515" y="513" type="curve"/>
      <point x="475" y="513" type="line"/>
      <point x="417" y="432"/>
      <point x="362" y="359"/>
      <point x="297" y="281" type="curve"/>
      <point x="297" y="513" type="line"/>
      <point x="264" y="513" type="line"/>
      <point x="264" y="281" type="line"/>
      <point x="197" y="362"/>
      <point x="139" y="437"/>
      <point x="87" y="513" type="curve"/>
      <point x="46" y="513" type="line"/>
      <point x="121" y="410"/>
      <point x="165" y="350"/>
      <point x="233" y="276" type="curve"/>
      <point x="168" y="229"/>
      <point x="70" y="108"/>
    </contour>
  </outline>
</glyph>
<glyph name="ef-cy" format="2">
  <advance width="560"/>
  <unicode hex="0444"/>
  <outline>
    <contour>
      <point x="264" y="-185" type="line"/>
      <point x="297" y="-185" type="line"/>
      <point x="297" y="-9" type="line"/>
      <point x="424" y="-1"/>
      <point x="520" y="99"/>
      <point x="520" y="254" type="curve" smooth="yes"/>
      <point x="520" y="410"/>
      <point x="424" y="510"/>
      <point x="297" y="517" type="curve"/>
      <point x="297" y="776" type="line"/>
      <point x="264" y="769" type="line"/>
      <point x="264" y="517" type="line"/>
      <point x="137" y="510"/>
      <point x="40" y="411"/>
      <point x="40" y="254" type="curve" smooth="yes"/>
      <point x="40" y="98"/>
      <point x="137" y="-1"/>
      <point x="264" y="-9" type="curve"/>
    </contour>
    <contour>
      <point x="264" y="21" type="line"/>
      <point x="153" y="26"/>
      <point x="75" y="116"/>
      <point x="75" y="254" type="curve" smooth="yes"/>
      <point x="75" y="393"/>
      <point x="153" y="483"/>
      <point x="264" y="488" type="curve"/>
    </contour>
    <contour>
      <point x="297" y="21" type="curve"/>
      <point x="297" y="488" type="line"/>
      <point x="407" y="483"/>
      <point x="485" y="393"/>
      <point x="485" y="254" type="curve" smooth="yes"/>
      <point x="485" y="116"/>
      <point x="407" y="26"/>
    </contour>
  </outline>
</glyph>
<glyph name="ya-cy" format="2">
  <advance width="560"/>
  <unicode hex="044F"/>
  <anchor x="280" y="582" name="top"/>
  <outline>
    <contour>
      <point x="68" y="0" type="curve"/>
      <point x="106" y="0" type="line"/>
      <point x="135" y="60"/>
      <point x="173" y="121"/>
      <point x="239" y="220" type="curve"/>
      <point x="256" y="217"/>
      <point x="277" y="216"/>
      <point x="300" y="216" type="curve" smooth="yes"/>
      <point x="428" y="216" type="line"/>
      <point x="428" y="0" type="line"/>
      <point x="461" y="0" type="line"/>
      <point x="461" y="505" type="line"/>
      <point x="406" y="517"/>
      <point x="353" y="523"/>
      <point x="303" y="523" type="curve" smooth="yes"/>
      <point x="168" y="523"/>
      <point x="94" y="467"/>
      <point x="94" y="367" type="curve" smooth="yes"/>
      <point x="94" y="295"/>
      <point x="131" y="248"/>
      <point x="206" y="227" type="curve"/>
      <point x="135" y="124"/>
      <point x="95" y="56"/>
    </contour>
    <contour>
      <point x="315" y="244" type="line" smooth="yes"/>
      <point x="188" y="244"/>
      <point x="130" y="283"/>
      <point x="130" y="367" type="curve" smooth="yes"/>
      <point x="130" y="449"/>
      <point x="189" y="493"/>
      <point x="304" y="493" type="curve" smooth="yes"/>
      <point x="344" y="493"/>
      <point x="396" y="488"/>
      <point x="428" y="481" type="curve"/>
      <point x="428" y="244" type="line"/>
    </contour>
  </outline>
</glyph>
<glyph name="Izhitsa-cy" format="2">
  <advance width="560"/>
  <unicode hex="0474"/>
  <anchor x="280" y="685" name="top"/>
  <outline>
    <contour>
      <point x="220" y="0" type="curve"/>
      <point x="254" y="0" type="line"/>
      <point x="308" y="157"/>
      <point x="363" y="352"/>
      <point x="412" y="540" type="curve" smooth="yes"/>
      <point x="436" y="633"/>
      <point x="453" y="664"/>
      <point x="485" y="664" type="curve" smooth="yes"/>
      <point x="501" y="664"/>
      <point x="520" y="658"/>
      <point x="536" y="647" type="curve"/>
      <point x="553" y="678" type="line"/>
      <point x="533" y="694"/>
      <point x="511" y="700"/>
      <point x="485" y="700" type="curve" smooth="yes"/>
      <point x="430" y="700"/>
      <point x="410" y="669"/>
      <point x="382" y="560" type="curve" smooth="yes"/>
      <point x="340" y="396"/>
      <point x="295" y="236"/>
      <point x="236" y="46" type="curve"/>
      <point x="162" y="275"/>
      <point x="116" y="441"/>
      <point x="57" y="693" type="curve"/>
      <point x="18" y="693" type="line"/>
      <point x="81" y="444"/>
      <point x="139" y="231"/>
    </contour>
  </outline>
</glyph>
<glyph name="Kadescender-cy" format="2">
  <advance width="560"/>
  <unicode hex="049A"/>
  <outline>
    <contour>
      <point x="487" y="-185" type="line"/>
      <point x="522" y="-185" type="line"/>
      <point x="522" y="30" type="line"/>
      <point x="477" y="30" type="line"/>
      <point x="395" y="162"/>
      <point x="269" y="291"/>
      <point x="172" y="361" type="curve"/>
      <point x="276" y="444"/>
      <point x="422" y="590"/>
      <point x="520" y="693" type="curve"/>
      <point x="476" y="693" type="line"/>
      <point x="398" y="607"/>
      <point x="241" y="456"/>
      <point x="129" y="366" type="curve"/>
      <point x="129" y="693" type="line"/>
      <point x="94" y="693" type="line"/>
      <point x="94" y="0" type="line"/>
      <point x="129" y="0" type="line"/>
      <point x="129" y="345" type="line"/>
      <point x="229" y="290"/>
      <point x="378" y="130"/>
      <point x="457" y="0" type="curve"/>
      <point x="487" y="0" type="line"/>
    </contour>
  </outline>
</glyph>
<glyph name="kadescender-cy" format="2">
  <advance width="560"/>
  <unicode hex="049B"/>
  <outline>
    <contour>
      <point x="479" y="-143" type="line"/>
      <point x="512" y="-143" type="line"/>
      <point x="512" y="28" type="line"/>
      <point x="473" y="28" type="line"/>
      <point x="388" y="131"/>
      <point x="268" y="225"/>
      <point x="169" y="276" type="curve"/>
      <point x="291" y="349"/>
      <point x="394" y="421"/>
      <point x="498" y="513" type="curve"/>
      <point x="450" y="513" type="line"/>
      <point x="348" y="428"/>
      <point x="269" y="372"/>
      <point x="128" y="279" type="curve"/>
      <point x="128" y="513" type="line"/>
      <point x="95" y="513" type="line"/>
      <point x="95" y="0" type="line"/>
      <point x="128" y="0" type="line"/>
      <point x="128" y="262" type="line"/>
      <point x="238" y="212"/>
      <point x="363" y="110"/>
      <point x="452" y="0" type="curve"/>
      <point x="479" y="0" type="line"/>
    </contour>
  </outline>
</glyph>
<glyph name="Pemiddlehook-cy" format="2">
  <advance width="560"/>
  <unicode hex="04A6"/>
  <outline>
    <contour>
      <point x="370" y="-185" type="curve" smooth="yes"/>
      <point x="458" y="-185"/>
      <point x="510" y="-82"/>
      <point x="510" y="126" type="curve" smooth="yes"/>
      <point x="510" y="329"/>
      <point x="465" y="433"/>
      <point x="360" y="433" type="curve" smooth="yes"/>
      <point x="337" y="433"/>
      <point x="315" y="429"/>
      <point x="297" y="420" type="curve"/>
      <point x="297" y="693" type="line"/>
      <point x="71" y="693" type="line"/>
      <point x="71" y="0" type="line"/>
      <point x="106" y="0" type="line"/>
      <point x="106" y="662" type="line"/>
      <point x="262" y="662" type="line"/>
      <point x="262" y="0" type="line"/>
      <point x="297" y="0" type="line"/>
      <point x="297" y="389" type="line"/>
      <point x="314" y="395"/>
      <point x="338" y="401"/>
      <point x="361" y="401" type="curve" smooth="yes"/>
      <point x="440" y="401"/>
      <point x="474" y="303"/>
      <point x="474" y="126" type="curve" smooth="yes"/>
      <point x="474" y="-54"/>
      <point x="443" y="-153"/>
      <point x="373" y="-153" type="curve" smooth="yes"/>
      <point x="366" y="-153"/>
      <point x="358" y="-153"/>
      <point x="350" y="-151" type="curve"/>
      <point x="350" y="-182" type="line"/>
      <point x="356" y="-184"/>
      <point x="365" y="-185"/>
    </contour>
  </outline>
</glyph>
<glyph name="ustraight-cy" format="2">
  <advance width="560"/>
  <unicode hex="04AF"/>
  <outline>
    <contour>
      <point x="265" y="-185" type="line"/>
      <point x="298" y="-185" type="line"/>
      <point x="298" y="-7" type="line"/>
      <point x="368" y="104"/>
      <point x="462" y="347"/>
      <point x="501" y="513" type="curve"/>
      <point x="467" y="513" type="line"/>
      <point x="431" y="370"/>
      <point x="354" y="145"/>
      <point x="283" y="26" type="curve"/>
      <point x="209" y="163"/>
      <point x="134" y="349"/>
      <point x="93" y="513" type="curve"/>
      <point x="59" y="513" type="line"/>
      <point x="102" y="332"/>
      <point x="183" y="131"/>
      <point x="265" y="-7" type="curve"/>
    </contour>
  </outline>
</glyph>
<glyph name="Hadescender-cy" format="2">
  <advance width="560"/>
  <unicode hex="04B2"/>
  <outline>
    <contour>
      <point x="495" y="-185" type="line"/>
      <point x="530" y="-185" type="line"/>
      <point x="530" y="31" type="line"/>
      <point x="494" y="31" type="line"/>
      <point x="426" y="156"/>
      <point x="375" y="245"/>
      <point x="300" y="369" type="curve"/>
      <point x="503" y="693" type="line"/>
      <point x="465" y="693" type="line"/>
      <point x="283" y="397" type="line"/>
      <point x="103" y="693" type="line"/>
      <point x="63" y="693" type="line"/>
      <point x="262" y="366" type="line"/>
      <point x="172" y="231"/>
      <point x="109" y="117"/>
      <point x="49" y="0" type="curve"/>
      <point x="88" y="0" type="line"/>
      <point x="133" y="93"/>
      <point x="197" y="204"/>
      <point x="280" y="337" type="curve"/>
      <point x="349" y="223"/>
      <point x="412" y="114"/>
      <point x="471" y="0" type="curve"/>
      <point x="495" y="0" type="line"/>
    </contour>
  </outline>
</glyph>
<glyph name="cheverticalstroke-cy" format="2">
  <advance width="560"/>
  <unicode hex="04B9"/>
  <outline>
    <contour>
      <point x="438" y="0" type="line"/>
      <point x="471" y="0" type="line"/>
      <point x="471" y="513" type="line"/>
      <point x="438" y="513" type="line"/>
      <point x="438" y="249" type="line"/>
      <point x="393" y="237"/>
      <point x="341" y="230"/>
      <point x="294" y="228" type="curve"/>
      <point x="294" y="348" type="line"/>
      <point x="266" y="348" type="line"/>
      <point x="266" y="227" type="line"/>
      <point x="166" y="227"/>
      <point x="117" y="275"/>
      <point x="117" y="371" type="curve" smooth="yes"/>
      <point x="117" y="513" type="line"/>
      <point x="84" y="513" type="line"/>
      <point x="84" y="366" type="line" smooth="yes"/>
      <point x="84" y="254"/>
      <point x="146" y="196"/>
      <point x="266" y="196" type="curve"/>
      <point x="266" y="96" type="line"/>
      <point x="294" y="96" type="line"/>
      <point x="294" y="197" type="line"/>
      <point x="339" y="199"/>
      <point x="387" y="206"/>
      <point x="438" y="218" type="curve"/>
    </contour>
  </outline>
</glyph>
<glyph name="Cheabkhasian-cy" format="2">
  <advance width="560"/>
  <unicode hex="04BC"/>
  <outline>
    <contour>
      <point x="395" y="-11" type="curve" smooth="yes"/>
      <point x="448" y="-11"/>
      <point x="496" y="4"/>
      <point x="517" y="23" type="curve"/>
      <point x="510" y="51" type="line"/>
      <point x="491" y="37"/>
      <point x="451" y="21"/>
      <point x="395" y="21" type="curve" smooth="yes"/>
      <point x="281" y="21"/>
      <point x="224" y="129"/>
      <point x="221" y="351" type="curve"/>
      <point x="517" y="351" type="line"/>
      <point x="518" y="364"/>
      <point x="519" y="379"/>
      <point x="519" y="388" type="curve" smooth="yes"/>
      <point x="519" y="600"/>
      <point x="464" y="704"/>
      <point x="353" y="704" type="curve" smooth="yes"/>
      <point x="249" y="704"/>
      <point x="193" y="599"/>
      <point x="185" y="383" type="curve"/>
      <point x="111" y="383"/>
      <point x="75" y="413"/>
      <point x="75" y="473" type="curve" smooth="yes"/>
      <point x="75" y="484"/>
      <point x="76" y="495"/>
      <point x="77" y="507" type="curve"/>
      <point x="45" y="511" type="line"/>
      <point x="43" y="498"/>
      <point x="41" y="485"/>
      <point x="41" y="472" type="curve" smooth="yes"/>
      <point x="41" y="391"/>
      <point x="88" y="351"/>
      <point x="185" y="350" type="curve"/>
      <point x="187" y="108"/>
      <point x="256" y="-11"/>
    </contour>
    <contour>
      <point x="221" y="383" type="line"/>
      <point x="228" y="577"/>
      <point x="272" y="672"/>
      <point x="353" y="672" type="curve" smooth="yes"/>
      <point x="440" y="672"/>
      <point x="483" y="577"/>
      <point x="483" y="383" type="curve"/>
    </contour>
  </outline>
</glyph>
<glyph name="Enhook-cy" format="2">
  <advance width="560"/>
  <unicode hex="04C7"/>
  <outline>
    <contour>
      <point x="406" y="-187" type="curve" smooth="yes"/>
      <point x="486" y="-187"/>
      <point x="505" y="-133"/>
      <point x="505" y="-55" type="curve" smooth="yes"/>
      <point x="505" y="693" type="line"/>
      <point x="470" y="693" type="line"/>
      <point x="470" y="376" type="line"/>
      <point x="90" y="376" type="line"/>
      <point x="90" y="693" type="line"/>
      <point x="55" y="693" type="line"/>
      <point x="55" y="0" type="line"/>
      <point x="90" y="0" type="line"/>
      <point x="90" y="345" type="line"/>
      <point x="470" y="345" type="line"/>
      <point x="470" y="-57" type="line" smooth="yes"/>
      <point x="470" y="-113"/>
      <point x="464" y="-155"/>
      <point x="406" y="-155" type="curve" smooth="yes"/>
      <point x="391" y="-155"/>
      <point x="372" y="-152"/>
      <point x="360" y="-148" type="curve"/>
      <point x="354" y="-179" type="line"/>
      <point x="367" y="-184"/>
      <point x="383" y="-187"/>
    </contour>
  </outline>
</glyph>
<glyph name="Entail-cy" format="2">
  <advance width="560"/>
  <unicode hex="04C9"/>
  <outline>
    <contour>
      <point x="441" y="-188" type="line"/>
      <point x="482" y="-156"/>
      <point x="534" y="-76"/>
      <point x="534" y="31" type="curve"/>
      <point x="495" y="31" type="line"/>
      <point x="495" y="693" type="line"/>
      <point x="460" y="693" type="line"/>
      <point x="460" y="376" type="line"/>
      <point x="89" y="376" type="line"/>
      <point x="89" y="693" type="line"/>
      <point x="54" y="693" type="line"/>
      <point x="54" y="0" type="line"/>
      <point x="89" y="0" type="line"/>
      <point x="89" y="345" type="line"/>
      <point x="460" y="345" type="line"/>
      <point x="460" y="0" type="line"/>
      <point x="499" y="0" type="line"/>
      <point x="494" y="-67"/>
      <point x="464" y="-124"/>
      <point x="416" y="-170" type="curve"/>
    </contour>
  </outline>
</glyph>
<glyph name="entail-cy" format="2">
  <advance width="560"/>
  <unicode hex="04CA"/>
  <outline>
    <contour>
      <point x="426" y="-166" type="line"/>
      <point x="462" y="-133"/>
      <point x="503" y="-66"/>
      <point x="503" y="28" type="curve"/>
      <point x="467" y="28" type="line"/>
      <point x="467" y="513" type="line"/>
      <point x="434" y="513" type="line"/>
      <point x="434" y="282" type="line"/>
      <point x="126" y="282" type="line"/>
      <point x="126" y="513" type="line"/>
      <point x="93" y="513" type="line"/>
      <point x="93" y="0" type="line"/>
      <point x="126" y="0" type="line"/>
      <point x="126" y="254" type="line"/>
      <point x="434" y="254" type="line"/>
      <point x="434" y="0" type="line"/>
      <point x="472" y="0" type="line"/>
      <point x="468" y="-56"/>
      <point x="443" y="-104"/>
      <point x="404" y="-143" type="curve"/>
    </contour>
  </outline>
</glyph>
<glyph name="Emtail-cy" format="2">
  <advance width="560"/>
  <unicode hex="04CD"/>
  <outline>
    <contour>
      <point x="442" y="-188" type="line"/>
      <point x="483" y="-156"/>
      <point x="535" y="-76"/>
      <point x="535" y="31" type="curve"/>
      <point x="496" y="31" type="line"/>
      <point x="483" y="280"/>
      <point x="469" y="485"/>
      <point x="441" y="693" type="curve"/>
      <point x="413" y="693" type="line"/>
      <point x="359" y="563"/>
      <point x="317" y="457"/>
      <point x="276" y="330" type="curve"/>
      <point x="240" y="431"/>
      <point x="191" y="563"/>
      <point x="139" y="693" type="curve"/>
      <point x="109" y="693" type="line"/>
      <point x="81" y="472"/>
      <point x="67" y="260"/>
      <point x="52" y="0" type="curve"/>
      <point x="88" y="0" type="line"/>
      <point x="98" y="242"/>
      <point x="116" y="449"/>
      <point x="134" y="627" type="curve"/>
      <point x="257" y="284" type="line"/>
      <point x="291" y="284" type="line"/>
      <point x="416" y="627" type="line"/>
      <point x="438" y="451"/>
      <point x="451" y="242"/>
      <point x="463" y="0" type="curve"/>
      <point x="500" y="0" type="line"/>
      <point x="495" y="-67"/>
      <point x="465" y="-124"/>
      <point x="417" y="-170" type="curve"/>
    </contour>
  </outline>
</glyph>
<glyph name="Germandbls" format="2">
  <advance width="560"/>
  <unicode hex="1E9E"/>
  <outline>
    <contour>
      <point x="80" y="444" type="curve"/>
      <point x="80" y="10" type="line"/>
      <point x="115" y="10" type="line"/>
      <point x="115" y="444" type="line"/>
      <point x="115" y="579"/>
      <point x="185" y="680"/>
      <point x="305" y="680" type="curve"/>
      <point x="353" y="680"/>
      <point x="403" y="670"/>
      <point x="443" y="643" type="curve"/>
      <point x="246" y="362" type="line"/>
      <point x="352" y="337"/>
      <point x="458" y="298"/>
      <point x="458" y="183" type="curve"/>
      <point x="458" y="97"/>
      <point x="408" y="32"/>
      <point x="327" y="32" type="curve"/>
      <point x="282" y="32"/>
      <point x="239" y="41"/>
      <point x="197" y="59" type="curve"/>
      <point x="186" y="27" type="line"/>
      <point x="231" y="8"/>
      <point x="279" y="0"/>
      <point x="327" y="0" type="curve"/>
      <point x="426" y="0"/>
      <point x="494" y="77"/>
      <point x="494" y="184" type="curve"/>
      <point x="494" y="297"/>
      <point x="401" y="354"/>
      <point x="298" y="381" type="curve"/>
      <point x="488" y="647" type="line"/>
      <point x="437" y="695"/>
      <point x="372" y="712"/>
      <point x="304" y="712" type="curve"/>
      <point x="162" y="712"/>
      <point x="80" y="600"/>
    </contour>
  </outline>
</glyph>
<glyph name="Alphaprosgegrammeni" format="2">
  <advance width="560"/>
  <unicode hex="1FBC"/>
  <outline>
    <contour>
      <point x="10" y="0" type="curve"/>
      <point x="45" y="0" type="line"/>
      <point x="90" y="209" type="line"/>
      <point x="299" y="209" type="line"/>
      <point x="344" y="0" type="line"/>
      <point x="381" y="0" type="line"/>
      <point x="315" y="305"/>
      <point x="280" y="459"/>
      <point x="214" y="693" type="curve"/>
      <point x="176" y="693" type="line"/>
      <point x="111" y="459"/>
      <point x="58" y="224"/>
    </contour>
    <contour>
      <point x="96" y="240" type="line"/>
      <point x="131" y="400"/>
      <point x="157" y="499"/>
      <point x="194" y="648" type="curve"/>
      <point x="236" y="480"/>
      <point x="254" y="415"/>
      <point x="293" y="240" type="curve"/>
    </contour>
    <contour>
      <point x="533" y="-9" type="curve"/>
      <point x="538" y="21" type="line"/>
      <point x="493" y="29"/>
      <point x="475" y="53"/>
      <point x="475" y="109" type="curve" smooth="yes"/>
      <point x="475" y="514" type="line"/>
      <point x="442" y="514" type="line"/>
      <point x="442" y="109" type="line" smooth="yes"/>
      <point x="442" y="43"/>
      <point x="469" y="0"/>
    </contour>
  </outline>
</glyph>
<glyph name="dasiaoxia" format="2">
  <advance width="560"/>
  <unicode hex="1FDE"/>
  <anchor x="279" y="723" name="top"/>
  <outline>
    <contour>
      <point x="330" y="582" type="line"/>
      <point x="429" y="734" type="line"/>
      <point x="400" y="753" type="line"/>
      <point x="306" y="598" type="line"/>
    </contour>
    <contour>
      <point x="242" y="572" type="curve"/>
      <point x="260" y="593" type="line"/>
      <point x="226" y="619"/>
      <point x="190" y="661"/>
      <point x="187" y="686" type="curve"/>
      <point x="208" y="690"/>
      <point x="217" y="704"/>
      <point x="217" y="719" type="curve" smooth="yes"/>
      <point x="217" y="739"/>
      <point x="203" y="752"/>
      <point x="182" y="752" type="curve" smooth="yes"/>
      <point x="161" y="752"/>
      <point x="148" y="736"/>
      <point x="148" y="712" type="curve" smooth="yes"/>
      <point x="148" y="668"/>
      <point x="186" y="614"/>
    </contour>
  </outline>
</glyph>
<glyph name="dialytikavaria" format="2">
  <advance width="560"/>
  <unicode hex="1FED"/>
  <outline>
    <contour>
      <point x="315" y="594" type="line"/>
      <point x="338" y="607" type="line"/>
      <point x="255" y="760" type="line"/>
      <point x="223" y="742" type="line"/>
    </contour>
    <contour>
      <point x="170" y="634" type="curve" smooth="yes"/>
      <point x="190" y="634"/>
      <point x="204" y="649"/>
      <point x="204" y="671" type="curve" smooth="yes"/>
      <point x="204" y="693"/>
      <point x="190" y="708"/>
      <point x="170" y="708" type="curve" smooth="yes"/>
      <point x="150" y="708"/>
      <point x="136" y="693"/>
      <point x="136" y="671" type="curve" smooth="yes"/>
      <point x="136" y="649"/>
      <point x="150" y="634"/>
    </contour>
    <contour>
      <point x="390" y="634" type="curve" smooth="yes"/>
      <point x="410" y="634"/>
      <point x="424" y="649"/>
      <point x="424" y="671" type="curve" smooth="yes"/>
      <point x="424" y="693"/>
      <point x="410" y="708"/>
      <point x="390" y="708" type="curve" smooth="yes"/>
      <point x="370" y="708"/>
      <point x="356" y="693"/>
      <point x="356" y="671" type="curve" smooth="yes"/>
      <point x="356" y="649"/>
      <point x="370" y="634"/>
    </contour>
  </outline>
</glyph>
<glyph name="dasia" format="2">
  <advance width="560"/>
  <unicode hex="1FFE"/>
  <anchor x="279" y="717" name="top"/>
  <outline>
    <contour>
      <point x="324" y="572" type="curve"/>
      <point x="342" y="593" type="line"/>
      <point x="308" y="619"/>
      <point x="272" y="661"/>
      <point x="269" y="686" type="curve"/>
      <point x="290" y="690"/>
      <point x="299" y="704"/>
      <point x="299" y="719" type="curve" smooth="yes"/>
      <point x="299" y="739"/>
      <point x="285" y="752"/>
      <point x="264" y="752" type="curve" smooth="yes"/>
      <point x="243" y="752"/>
      <point x="230" y="736"/>
      <point x="230" y="712" type="curve" smooth="yes"/>
      <point x="230" y="668"/>
      <point x="268" y="614"/>
    </contour>
  </outline>
</glyph>
<glyph name="quoteleft" format="2">
  <advance width="560"/>
  <unicode hex="2018"/>
  <outline>
    <contour>
      <point x="251" y="502" type="curve" smooth="yes"/>
      <point x="280" y="502"/>
      <point x="305" y="529"/>
      <point x="305" y="562" type="curve" smooth="yes"/>
      <point x="305" y="601"/>
      <point x="283" y="630"/>
      <point x="227" y="621" type="curve"/>
      <point x="252" y="697"/>
      <point x="314" y="725"/>
      <point x="381" y="738" type="curve"/>
      <point x="375" y="765" type="line"/>
      <point x="249" y="751"/>
      <point x="188" y="647"/>
      <point x="188" y="579" type="curve" smooth="yes"/>
      <point x="188" y="530"/>
      <point x="210" y="502"/>
    </contour>
  </outline>
</glyph>
<glyph name="quotesinglbase" format="2">
  <advance width="560"/>
  <unicode hex="201A"/>
  <outline>
    <contour>
      <point x="185" y="-151" type="line"/>
      <point x="311" y="-137"/>
      <point x="372" y="-33"/>
      <point x="372" y="35" type="curve" smooth="yes"/>
      <point x="372" y="84"/>
      <point x="350" y="112"/>
      <point x="309" y="112" type="curve" smooth="yes"/>
      <point x="280" y="112"/>
      <point x="255" y="85"/>
      <point x="255" y="52" type="curve" smooth="yes"/>
      <point x="255" y="13"/>
      <point x="277" y="-16"/>
      <point x="333" y="-7" type="curve"/>
      <point x="308" y="-83"/>
      <point x="246" y="-111"/>
      <point x="179" y="-124" type="curve"/>
    </contour>
  </outline>
</glyph>
<glyph name="quotedblbase" format="2">
  <advance width="560"/>
  <unicode hex="201E"/>
  <outline>
    <contour>
      <point x="305" y="-141" type="line"/>
      <point x="418" y="-128"/>
      <point x="472" y="-29"/>
      <point x="472" y="35" type="curve" smooth="yes"/>
      <point x="472" y="84"/>
      <point x="450" y="112"/>
      <point x="409" y="112" type="curve" smooth="yes"/>
      <point x="380" y="112"/>
      <point x="355" y="85"/>
      <point x="355" y="52" type="curve" smooth="yes"/>
      <point x="355" y="13"/>
      <point x="377" y="-16"/>
      <point x="433" y="-7" type="curve"/>
      <point x="411" y="-77"/>
      <point x="357" y="-102"/>
      <point x="299" y="-114" type="curve"/>
    </contour>
    <contour>
      <point x="60" y="-141" type="line"/>
      <point x="173" y="-128"/>
      <point x="227" y="-29"/>
      <point x="227" y="35" type="curve" smooth="yes"/>
      <point x="227" y="84"/>
      <point x="205" y="112"/>
      <point x="164" y="112" type="curve" smooth="yes"/>
      <point x="135" y="112"/>
      <point x="110" y="85"/>
      <point x="110" y="52" type="curve" smooth="yes"/>
      <point x="110" y="13"/>
      <point x="132" y="-16"/>
      <point x="188" y="-7" type="curve"/>
      <point x="166" y="-77"/>
      <point x="112" y="-102"/>
      <point x="54" y="-114" type="curve"/>
    </contour>
  </outline>
</glyph>
<glyph name="euro" format="2">
  <advance width="560"/>
  <unicode hex="20AC"/>
  <outline>
    <contour>
      <point x="370" y="-10" type="curve" smooth="yes"/>
      <point x="421" y="-10"/>
      <point x="477" y="0"/>
      <point x="512" y="17" type="curve"/>
      <point x="503" y="46" type="line"/>
      <point x="476" y="33"/>
      <point x="421" y="22"/>
      <point x="370" y="22" type="curve" smooth="yes"/>
      <point x="229" y="22"/>
      <point x="181" y="112"/>
      <point x="165" y="248" type="curve"/>
      <point x="378" y="248" type="line"/>
      <point x="385" y="280" type="line"/>
      <point x="163" y="280" type="line"/>
      <point x="162" y="291"/>
      <point x="161" y="302"/>
      <point x="161" y="347" type="curve" smooth="yes"/>
      <point x="161" y="372"/>
      <point x="162" y="396"/>
      <point x="163" y="419" type="curve"/>
      <point x="413" y="419" type="line"/>
      <point x="419" y="451" type="line"/>
      <point x="166" y="451" type="line"/>
      <point x="182" y="578"/>
      <point x="236" y="671"/>
      <point x="374" y="671" type="curve" smooth="yes"/>
      <point x="417" y="671"/>
      <point x="461" y="663"/>
      <point x="486" y="651" type="curve"/>
      <point x="497" y="681" type="line"/>
      <point x="464" y="696"/>
      <point x="422" y="703"/>
      <point x="374" y="703" type="curve" smooth="yes"/>
      <point x="216" y="703"/>
      <point x="149" y="603"/>
      <point x="130" y="451" type="curve"/>
      <point x="52" y="451" type="line"/>
      <point x="52" y="419" type="line"/>
      <point x="127" y="419" type="line"/>
      <point x="126" y="396"/>
      <point x="125" y="372"/>
      <point x="125" y="347" type="curve" smooth="yes"/>
      <point x="125" y="302"/>
      <point x="126" y="291"/>
      <point x="127" y="280" type="curve"/>
      <point x="52" y="280" type="line"/>
      <point x="52" y="248" type="line"/>
      <point x="129" y="248" type="line"/>
      <point x="145" y="90"/>
      <point x="206" y="-10"/>
    </contour>
  </outline>
</glyph>
<glyph name="rupeeIndian" format="2">
  <advance width="560"/>
  <unicode hex="20B9"/>
  <outline>
    <contour>
      <point x="355" y="0" type="curve"/>
      <point x="397" y="0" type="line"/>
      <point x="349" y="83"/>
      <point x="217" y="237"/>
      <point x="129" y="322" type="curve"/>
      <point x="324" y="322"/>
      <point x="411" y="378"/>
      <point x="422" y="492" type="curve"/>
      <point x="479" y="492" type="line"/>
      <point x="485" y="523" type="line"/>
      <point x="421" y="523" type="line"/>
      <point x="414" y="590"/>
      <point x="377" y="637"/>
      <point x="317" y="662" type="curve"/>
      <point x="511" y="662" type="line"/>
      <point x="517" y="693" type="line"/>
      <point x="74" y="693" type="line"/>
      <point x="74" y="662" type="line"/>
      <point x="167" y="662" type="line" smooth="yes"/>
      <point x="301" y="662"/>
      <point x="377" y="616"/>
      <point x="386" y="523" type="curve"/>
      <point x="74" y="523" type="line"/>
      <point x="74" y="492" type="line"/>
      <point x="386" y="492" type="line"/>
      <point x="381" y="390"/>
      <point x="286" y="353"/>
      <point x="134" y="353" type="curve" smooth="yes"/>
      <point x="74" y="353" type="line"/>
      <point x="74" y="328" type="line"/>
      <point x="170" y="241"/>
      <point x="263" y="134"/>
    </contour>
  </outline>
</glyph>
<glyph name="published" format="2">
  <advance width="560"/>
  <unicode hex="2117"/>
  <outline>
    <contour>
      <point x="280" y="-11" type="curve" smooth="yes"/>
      <point x="412" y="-11"/>
      <point x="517" y="97"/>
      <point x="517" y="261" type="curve" smooth="yes"/>
      <point x="517" y="424"/>
      <point x="413" y="532"/>
      <point x="280" y="532" type="curve" smooth="yes"/>
      <point x="148" y="532"/>
      <point x="43" y="424"/>
      <point x="43" y="260" type="curve" smooth="yes"/>
      <point x="43" y="97"/>
      <point x="147" y="-11"/>
    </contour>
    <contour>
      <point x="280" y="18" type="curve" smooth="yes"/>
      <point x="162" y="18"/>
      <point x="75" y="115"/>
      <point x="75" y="260" type="curve" smooth="yes"/>
      <point x="75" y="404"/>
      <point x="161" y="502"/>
      <point x="280" y="502" type="curve" smooth="yes"/>
      <point x="397" y="502"/>
      <point x="485" y="407"/>
      <point x="485" y="260" type="curve" smooth="yes"/>
      <point x="485" y="116"/>
      <point x="399" y="18"/>
    </contour>
    <contour>
      <point x="213" y="115" type="line"/>
      <point x="243" y="115" type="line"/>
      <point x="243" y="220" type="line"/>
      <point x="264" y="220" type="line" smooth="yes"/>
      <point x="337" y="220"/>
      <point x="379" y="253"/>
      <point x="379" y="319" type="curve" smooth="yes"/>
      <point x="379" y="373"/>
      <point x="338" y="407"/>
      <point x="270" y="407" type="curve" smooth="yes"/>
      <point x="251" y="407"/>
      <point x="224" y="404"/>
      <point x="213" y="401" type="curve"/>
    </contour>
    <contour>
      <point x="243" y="248" type="line"/>
      <point x="243" y="376" type="line"/>
      <point x="251" y="378"/>
      <point x="261" y="379"/>
      <point x="270" y="379" type="curve" smooth="yes"/>
      <point x="322" y="379"/>
      <point x="348" y="364"/>
      <point x="348" y="320" type="curve" smooth="yes"/>
      <point x="348" y="259"/>
      <point x="313" y="248"/>
      <point x="263" y="248" type="curve" smooth="yes"/>
    </contour>
  </outline>
</glyph>
<glyph name="oneseventh" format="2">
  <advance width="560"/>
  <unicode hex="2150"/>
  <outline>
    <contour>
      <point x="22" y="0" type="line"/>
      <point x="56" y="0" type="line"/>
      <point x="512" y="693" type="line"/>
      <point x="476" y="693" type="line"/>
    </contour>
    <contour>
      <point x="359" y="0" type="curve"/>
      <point x="390" y="0" type="line"/>
      <point x="401" y="98"/>
      <point x="465" y="212"/>
      <point x="526" y="264" type="curve"/>
      <point x="526" y="287" type="line"/>
      <point x="319" y="287" type="line"/>
      <point x="319" y="260" type="line"/>
      <point x="488" y="260" type="line"/>
      <point x="426" y="200"/>
      <point x="370" y="90"/>
    </contour>
    <contour>
      <point x="145" y="421" type="line"/>
      <point x="175" y="421" type="line"/>
      <point x="175" y="701" type="line"/>
      <point x="153" y="701" type="line"/>
      <point x="122" y="666"/>
      <point x="94" y="655"/>
      <point x="52" y="641" type="curve"/>
      <point x="60" y="617" type="line"/>
      <point x="86" y="624"/>
      <point x="119" y="636"/>
      <point x="145" y="655" type="curve"/>
    </contour>
  </outline>
</glyph>
<glyph name="onethird" format="2">
  <advance width="560"/>
  <unicode hex="2153"/>
  <outline>
    <contour>
      <point x="22" y="0" type="line"/>
      <point x="56" y="0" type="line"/>
      <point x="512" y="693" type="line"/>
      <point x="476" y="693" type="line"/>
    </contour>
    <contour>
      <point x="410" y="-8" type="curve" smooth="yes"/>
      <point x="481" y="-8"/>
      <point x="523" y="27"/>
      <point x="523" y="75" type="curve" smooth="yes"/>
      <point x="523" y="111"/>
      <point x="499" y="137"/>
      <point x="451" y="150" type="curve"/>
      <point x="487" y="161"/>
      <point x="505" y="188"/>
      <point x="505" y="219" type="curve" smooth="yes"/>
      <point x="505" y="263"/>
      <point x="471" y="290"/>
      <point x="416" y="290" type="curve" smooth="yes"/>
      <point x="383" y="290"/>
      <point x="354" y="281"/>
      <point x="331" y="267" type="curve"/>
      <point x="342" y="242" type="line"/>
      <point x="362" y="255"/>
      <point x="387" y="263"/>
      <point x="414" y="263" type="curve" smooth="yes"/>
      <point x="450" y="263"/>
      <point x="473" y="248"/>
      <point x="473" y="219" type="curve" smooth="yes"/>
      <point x="473" y="180"/>
      <point x="443" y="162"/>
      <point x="393" y="162" type="curve" smooth="yes"/>
      <point x="382" y="162" type="line"/>
      <point x="382" y="135" type="line"/>
      <point x="391" y="135" type="line" smooth="yes"/>
      <point x="451" y="135"/>
      <point x="491" y="114"/>
      <point x="491" y="75" type="curve" smooth="yes"/>
      <point x="491" y="39"/>
      <point x="464" y="19"/>
      <point x="407" y="19" type="curve" smooth="yes"/>
      <point x="382" y="19"/>
      <point x="358" y="25"/>
      <point x="335" y="34" type="curve"/>
      <point x="327" y="7" type="line"/>
      <point x="352" y="-4"/>
      <point x="382" y="-8"/>
    </contour>
    <contour>
      <point x="135" y="421" type="line"/>
      <point x="165" y="421" type="line"/>
      <point x="165" y="701" type="line"/>
      <point x="143" y="701" type="line"/>
      <point x="112" y="666"/>
      <point x="84" y="655"/>
      <point x="42" y="641" type="curve"/>
      <point x="50" y="617" type="line"/>
      <point x="76" y="624"/>
      <point x="109" y="636"/>
      <point x="135" y="655" type="curve"/>
    </contour>
  </outline>
</glyph>
<glyph name="onefifth" format="2">
  <advance width="560"/>
  <unicode hex="2155"/>
  <outline>
    <contour>
      <point x="30" y="0" type="line"/>
      <point x="64" y="0" type="line"/>
      <point x="520" y="693" type="line"/>
      <point x="484" y="693" type="line"/>
    </contour>
    <contour>
      <point x="408" y="-10" type="curve" smooth="yes"/>
      <point x="479" y="-10"/>
      <point x="519" y="26"/>
      <point x="519" y="76" type="curve" smooth="yes"/>
      <point x="519" y="135"/>
      <point x="478" y="165"/>
      <point x="376" y="169" type="curve"/>
      <point x="386" y="255" type="line"/>
      <point x="507" y="255" type="line"/>
      <point x="507" y="280" type="line"/>
      <point x="361" y="280" type="line"/>
      <point x="357" y="222"/>
      <point x="355" y="201"/>
      <point x="346" y="146" type="curve"/>
      <point x="456" y="144"/>
      <point x="489" y="122"/>
      <point x="489" y="77" type="curve" smooth="yes"/>
      <point x="489" y="39"/>
      <point x="461" y="15"/>
      <point x="408" y="15" type="curve" smooth="yes"/>
      <point x="381" y="15"/>
      <point x="350" y="22"/>
      <point x="329" y="31" type="curve"/>
      <point x="323" y="5" type="line"/>
      <point x="348" y="-4"/>
      <point x="376" y="-10"/>
    </contour>
    <contour>
      <point x="145" y="421" type="line"/>
      <point x="175" y="421" type="line"/>
      <point x="175" y="701" type="line"/>
      <point x="153" y="701" type="line"/>
      <point x="122" y="666"/>
      <point x="94" y="655"/>
      <point x="52" y="641" type="curve"/>
      <point x="60" y="617" type="line"/>
      <point x="86" y="624"/>
      <point x="119" y="636"/>
      <point x="145" y="655" type="curve"/>
    </contour>
  </outline>
</glyph>
<glyph name="onesixth" format="2">
  <advance width="560"/>
  <unicode hex="2159"/>
  <outline>
    <contour>
      <point x="27" y="0" type="line"/>
      <point x="61" y="0" type="line"/>
      <point x="517" y="693" type="line"/>
      <point x="481" y="693" type="line"/>
    </contour>
    <contour>
      <point x="401" y="15" type="curve" smooth="yes"/>
      <point x="340" y="15"/>
      <point x="318" y="70"/>
      <point x="326" y="132" type="curve"/>
      <point x="349" y="143"/>
      <point x="376" y="148"/>
      <point x="400" y="148" type="curve" smooth="yes"/>
      <point x="444" y="148"/>
      <point x="471" y="124"/>
      <point x="471" y="82" type="curve" smooth="yes"/>
      <point x="471" y="42"/>
      <point x="443" y="15"/>
    </contour>
    <contour>
      <point x="401" y="-10" type="curve" smooth="yes"/>
      <point x="464" y="-10"/>
      <point x="503" y="31"/>
      <point x="503" y="82" type="curve" smooth="yes"/>
      <point x="503" y="139"/>
      <point x="465" y="176"/>
      <point x="402" y="176" type="curve" smooth="yes"/>
      <point x="377" y="176"/>
      <point x="352" y="172"/>
      <point x="330" y="159" type="curve"/>
      <point x="346" y="234"/>
      <point x="406" y="263"/>
      <point x="481" y="265" type="curve"/>
      <point x="478" y="290" type="line"/>
      <point x="368" y="289"/>
      <point x="295" y="228"/>
      <point x="295" y="114" type="curve" smooth="yes"/>
      <point x="295" y="34"/>
      <point x="332" y="-10"/>
    </contour>
    <contour>
      <point x="141" y="421" type="line"/>
      <point x="171" y="421" type="line"/>
      <point x="171" y="701" type="line"/>
      <point x="149" y="701" type="line"/>
      <point x="118" y="666"/>
      <point x="90" y="655"/>
      <point x="48" y="641" type="curve"/>
      <point x="56" y="617" type="line"/>
      <point x="82" y="624"/>
      <point x="115" y="636"/>
      <point x="141" y="655" type="curve"/>
    </contour>
  </outline>
</glyph>
<glyph name="fiveeighths" format="2">
  <advance width="560"/>
  <unicode hex="215D"/>
  <outline>
    <contour>
      <point x="26" y="0" type="line"/>
      <point x="60" y="0" type="line"/>
      <point x="516" y="693" type="line"/>
      <point x="480" y="693" type="line"/>
    </contour>
    <contour>
      <point x="411" y="19" type="curve" smooth="yes"/>
      <point x="363" y="19"/>
      <point x="339" y="40"/>
      <point x="339" y="71" type="curve" smooth="yes"/>
      <point x="339" y="101"/>
      <point x="359" y="124"/>
      <point x="391" y="137" type="curve"/>
      <point x="462" y="113"/>
      <point x="483" y="100"/>
      <point x="483" y="69" type="curve" smooth="yes"/>
      <point x="483" y="40"/>
      <point x="457" y="19"/>
    </contour>
    <contour>
      <point x="411" y="-8" type="curve" smooth="yes"/>
      <point x="472" y="-8"/>
      <point x="516" y="25"/>
      <point x="516" y="71" type="curve" smooth="yes"/>
      <point x="516" y="104"/>
      <point x="496" y="126"/>
      <point x="453" y="144" type="curve"/>
      <point x="485" y="163"/>
      <point x="505" y="186"/>
      <point x="505" y="216" type="curve" smooth="yes"/>
      <point x="505" y="257"/>
      <point x="469" y="290"/>
      <point x="410" y="290" type="curve" smooth="yes"/>
      <point x="355" y="290"/>
      <point x="317" y="259"/>
      <point x="317" y="215" type="curve" smooth="yes"/>
      <point x="317" y="185"/>
      <point x="333" y="162"/>
      <point x="363" y="147" type="curve"/>
      <point x="327" y="130"/>
      <point x="307" y="101"/>
      <point x="307" y="71" type="curve" smooth="yes"/>
      <point x="307" y="26"/>
      <point x="343" y="-8"/>
    </contour>
    <contour>
      <point x="427" y="153" type="curve"/>
      <point x="371" y="170"/>
      <point x="349" y="187"/>
      <point x="349" y="214" type="curve" smooth="yes"/>
      <point x="349" y="242"/>
      <point x="371" y="263"/>
      <point x="410" y="263" type="curve" smooth="yes"/>
      <point x="449" y="263"/>
      <point x="472" y="242"/>
      <point x="472" y="215" type="curve" smooth="yes"/>
      <point x="472" y="188"/>
      <point x="459" y="171"/>
    </contour>
    <contour>
      <point x="123" y="411" type="curve" smooth="yes"/>
      <point x="194" y="411"/>
      <point x="234" y="447"/>
      <point x="234" y="497" type="curve" smooth="yes"/>
      <point x="234" y="556"/>
      <point x="193" y="586"/>
      <point x="91" y="590" type="curve"/>
      <point x="101" y="676" type="line"/>
      <point x="222" y="676" type="line"/>
      <point x="222" y="701" type="line"/>
      <point x="76" y="701" type="line"/>
      <point x="72" y="643"/>
      <point x="70" y="622"/>
      <point x="61" y="567" type="curve"/>
      <point x="171" y="565"/>
      <point x="204" y="543"/>
      <point x="204" y="498" type="curve" smooth="yes"/>
      <point x="204" y="460"/>
      <point x="176" y="436"/>
      <point x="123" y="436" type="curve" smooth="yes"/>
      <point x="96" y="436"/>
      <point x="65" y="443"/>
      <point x="44" y="452" type="curve"/>
      <point x="38" y="426" type="line"/>
      <point x="63" y="417"/>
      <point x="91" y="411"/>
    </contour>
  </outline>
</glyph>
<glyph name="increment" format="2">
  <advance width="560"/>
  <unicode hex="2206"/>
  <outline>
    <contour>
      <point x="14" y="0" type="curve"/>
      <point x="546" y="0" type="line"/>
      <point x="446" y="305"/>
      <point x="387" y="469"/>
      <point x="294" y="693" type="curve"/>
      <point x="264" y="693" type="line"/>
      <point x="169" y="458"/>
      <point x="94" y="242"/>
    </contour>
    <contour>
      <point x="62" y="31" type="line"/>
      <point x="137" y="253"/>
      <point x="207" y="464"/>
      <point x="278" y="645" type="curve"/>
      <point x="355" y="461"/>
      <point x="423" y="253"/>
      <point x="497" y="31" type="curve"/>
    </contour>
  </outline>
</glyph>
<glyph name="summation" format="2">
  <advance width="560"/>
  <unicode hex="2211"/>
  <outline>
    <contour>
      <point x="82" y="-109" type="line"/>
      <point x="495" y="-109" type="line"/>
      <point x="495" y="-78" type="line"/>
      <point x="117" y="-78" type="line"/>
      <point x="185" y="50"/>
      <point x="278" y="193"/>
      <point x="359" y="308" type="curve"/>
      <point x="254" y="456"/>
      <point x="218" y="502"/>
      <point x="124" y="662" type="curve"/>
      <point x="495" y="662" type="line"/>
      <point x="495" y="693" type="line"/>
      <point x="86" y="693" type="line"/>
      <point x="86" y="661" type="line"/>
      <point x="189" y="487"/>
      <point x="216" y="452"/>
      <point x="320" y="306" type="curve"/>
      <point x="232" y="184"/>
      <point x="140" y="36"/>
      <point x="82" y="-77" type="curve"/>
    </contour>
  </outline>
</glyph>
<glyph name="boxDownDoubleAndLeftSingle" format="2">
  <advance width="560"/>
  <unicode hex="2556"/>
  <outline>
    <contour>
      <point x="146" y="-190" type="line"/>
      <point x="235" y="-190" type="line"/>
      <point x="235" y="414" type="line"/>
      <point x="0" y="414" type="line"/>
      <point x="0" y="325" type="line"/>
      <point x="146" y="325" type="line"/>
    </contour>
    <contour>
      <point x="325" y="-190" type="line"/>
      <point x="414" y="-190" type="line"/>
      <point x="414" y="414" type="line"/>
      <point x="325" y="414" type="line"/>
    </contour>
  </outline>
</glyph>
<glyph name="fi" format="2">
  <advance width="560"/>
  <unicode hex="FB01"/>
  <anchor x="280" y="0" name="caret_1"/>
  <outline>
    <contour>
      <point x="118" y="0" type="line"/>
      <point x="151" y="0" type="line"/>
      <point x="151" y="485" type="line"/>
      <point x="319" y="485" type="line"/>
      <point x="319" y="513" type="line"/>
      <point x="151" y="513" type="line"/>
      <point x="151" y="580" type="line" smooth="yes"/>
      <point x="151" y="691"/>
      <point x="193" y="746"/>
      <point x="293" y="746" type="curve" smooth="yes"/>
      <point x="315" y="746"/>
      <point x="339" y="743"/>
      <point x="360" y="738" type="curve"/>
      <point x="365" y="768" type="line"/>
      <point x="348" y="772"/>
      <point x="322" y="776"/>
      <point x="293" y="776" type="curve" smooth="yes"/>
      <point x="172" y="776"/>
      <point x="118" y="705"/>
      <point x="118" y="580" type="curve" smooth="yes"/>
      <point x="118" y="513" type="line"/>
      <point x="45" y="513" type="line"/>
      <point x="45" y="485" type="line"/>
      <point x="118" y="485" type="line"/>
    </contour>
    <contour>
      <point x="447" y="0" type="line"/>
      <point x="480" y="0" type="line"/>
      <point x="480" y="513" type="line"/>
      <point x="447" y="513" type="line"/>
    </contour>
    <contour>
      <point x="464" y="629" type="curve" smooth="yes"/>
      <point x="487" y="629"/>
      <point x="507" y="647"/>
      <point x="507" y="674" type="curve" smooth="yes"/>
      <point x="507" y="700"/>
      <point x="487" y="718"/>
      <point x="464" y="718" type="curve" smooth="yes"/>
      <point x="441" y="718"/>
      <point x="421" y="700"/>
      <point x="421" y="674" type="curve" smooth="yes"/>
      <point x="421" y="647"/>
      <point x="441" y="629"/>
    </contour>
  </outline>
</glyph>
<glyph name="brevecomb.cyr" format="2">
  <anchor x="279" y="512" name="_top"/>
  <anchor x="279" y="714" name="top"/>
  <outline>
    <contour>
      <point x="280" y="611" type="curve"/>
      <point x="351" y="611"/>
      <point x="386" y="651"/>
      <point x="400" y="716" type="curve"/>
      <point x="372" y="727" type="line"/>
      <point x="359" y="672"/>
      <point x="334" y="641"/>
      <point x="280" y="641" type="curve" smooth="yes"/>
      <point x="226" y="641"/>
      <point x="201" y="672"/>
      <point x="188" y="727" type="curve"/>
      <point x="160" y="716" type="line"/>
      <point x="174" y="651"/>
      <point x="209" y="611"/>
    </contour>
  </outline>
</glyph>
<glyph name="dotaccentcomb.i" format="2">
  <anchor x="280" y="513" name="_top"/>
  <anchor x="280" y="718" name="top"/>
  <outline>
    <contour>
      <point x="280" y="639" type="curve" smooth="yes"/>
      <point x="303" y="639"/>
      <point x="323" y="657"/>
      <point x="323" y="684" type="curve" smooth="yes"/>
      <point x="323" y="710"/>
      <point x="303" y="728"/>
      <point x="280" y="728" type="curve" smooth="yes"/>
      <point x="257" y="728"/>
      <point x="237" y="710"/>
      <point x="237" y="684" type="curve" smooth="yes"/>
      <point x="237" y="657"/>
      <point x="257" y="639"/>
    </contour>
  </outline>
</glyph>
<glyph name="eight.numr" format="2">
  <advance width="560"/>
  <outline>
    <contour>
      <point x="280" y="311" type="curve" smooth="yes"/>
      <point x="353" y="311"/>
      <point x="407" y="356"/>
      <point x="407" y="416" type="curve" smooth="yes"/>
      <point x="407" y="461"/>
      <point x="380" y="487"/>
      <point x="325" y="511" type="curve"/>
      <point x="370" y="540"/>
      <point x="393" y="571"/>
      <point x="393" y="610" type="curve" smooth="yes"/>
      <point x="393" y="669"/>
      <point x="347" y="709"/>
      <point x="279" y="709" type="curve" smooth="yes"/>
      <point x="212" y="709"/>
      <point x="166" y="669"/>
      <point x="166" y="610" type="curve" smooth="yes"/>
      <point x="166" y="569"/>
      <point x="186" y="539"/>
      <point x="226" y="520" type="curve"/>
      <point x="177" y="497"/>
      <point x="153" y="459"/>
      <point x="153" y="418" type="curve" smooth="yes"/>
      <point x="153" y="352"/>
      <point x="200" y="311"/>
    </contour>
    <contour>
      <point x="280" y="338" type="curve" smooth="yes"/>
      <point x="219" y="338"/>
      <point x="185" y="367"/>
      <point x="185" y="418" type="curve" smooth="yes"/>
      <point x="185" y="460"/>
      <point x="213" y="493"/>
      <point x="257" y="509" type="curve"/>
      <point x="353" y="474"/>
      <point x="375" y="455"/>
      <point x="375" y="415" type="curve" smooth="yes"/>
      <point x="375" y="369"/>
      <point x="338" y="338"/>
    </contour>
    <contour>
      <point x="299" y="522" type="curve"/>
      <point x="226" y="547"/>
      <point x="198" y="568"/>
      <point x="198" y="607" type="curve" smooth="yes"/>
      <point x="198" y="652"/>
      <point x="230" y="682"/>
      <point x="279" y="682" type="curve" smooth="yes"/>
      <point x="327" y="682"/>
      <point x="361" y="652"/>
      <point x="361" y="607" type="curve" smooth="yes"/>
      <point x="361" y="570"/>
      <point x="343" y="545"/>
    </contour>
  </outline>
</glyph>
<glyph name="five.osf" format="2">
  <advance width="560"/>
  <outline>
    <contour>
      <point x="239" y="-174" type="curve" smooth="yes"/>
      <point x="387" y="-174"/>
      <point x="470" y="-98"/>
      <point x="470" y="35" type="curve" smooth="yes"/>
      <point x="470" y="180"/>
      <point x="360" y="245"/>
      <point x="171" y="248" type="curve"/>
      <point x="179" y="333"/>
      <point x="190" y="448"/>
      <point x="190" y="503" type="curve"/>
      <point x="446" y="503" type="line"/>
      <point x="446" y="534" type="line"/>
      <point x="157" y="534" type="line"/>
      <point x="157" y="438"/>
      <point x="150" y="375"/>
      <point x="134" y="217" type="curve"/>
      <point x="345" y="217"/>
      <point x="434" y="160"/>
      <point x="434" y="35" type="curve" smooth="yes"/>
      <point x="434" y="-81"/>
      <point x="366" y="-142"/>
      <point x="237" y="-142" type="curve" smooth="yes"/>
      <point x="186" y="-142"/>
      <point x="120" y="-124"/>
      <point x="88" y="-105" type="curve"/>
      <point x="77" y="-138" type="line"/>
      <point x="113" y="-160"/>
      <point x="184" y="-174"/>
    </contour>
  </outline>
</glyph>
<glyph name="four.numr" format="2">
  <advance width="560"/>
  <outline>
    <contour>
      <point x="330" y="324" type="line"/>
      <point x="360" y="324" type="line"/>
      <point x="360" y="422" type="line"/>
      <point x="415" y="422" type="line"/>
      <point x="415" y="448" type="line"/>
      <point x="360" y="448" type="line"/>
      <point x="360" y="701" type="line"/>
      <point x="338" y="701" type="line"/>
      <point x="269" y="644"/>
      <point x="177" y="518"/>
      <point x="143" y="442" type="curve"/>
      <point x="143" y="422" type="line"/>
      <point x="330" y="422" type="line"/>
    </contour>
    <contour>
      <point x="177" y="448" type="line"/>
      <point x="209" y="516"/>
      <point x="278" y="605"/>
      <point x="330" y="658" type="curve"/>
      <point x="330" y="448" type="line"/>
    </contour>
  </outline>
</glyph>
<glyph name="four.osf" format="2">
  <advance width="560"/>
  <outline>
    <contour>
      <point x="379" y="-159" type="line"/>
      <point x="413" y="-159" type="line"/>
      <point x="413" y="35" type="line"/>
      <point x="503" y="35" type="line"/>
      <point x="503" y="66" type="line"/>
      <point x="413" y="66" type="line"/>
      <point x="413" y="534" type="line"/>
      <point x="375" y="534" type="line"/>
      <point x="249" y="408"/>
      <point x="111" y="198"/>
      <point x="59" y="55" type="curve"/>
      <point x="59" y="35" type="line"/>
      <point x="379" y="35" type="line"/>
    </contour>
    <contour>
      <point x="97" y="66" type="line"/>
      <point x="145" y="195"/>
      <point x="277" y="388"/>
      <point x="379" y="495" type="curve"/>
      <point x="379" y="66" type="line"/>
    </contour>
  </outline>
</glyph>
<glyph name="one.numr" format="2">
  <advance width="560"/>
  <outline>
    <contour>
      <point x="163" y="324" type="line"/>
      <point x="409" y="324" type="line"/>
      <point x="409" y="350" type="line"/>
      <point x="307" y="350" type="line"/>
      <point x="307" y="701" type="line"/>
      <point x="285" y="701" type="line"/>
      <point x="241" y="647"/>
      <point x="206" y="638"/>
      <point x="161" y="622" type="curve"/>
      <point x="170" y="596" type="line"/>
      <point x="208" y="607"/>
      <point x="247" y="624"/>
      <point x="277" y="649" type="curve"/>
      <point x="277" y="350" type="line"/>
      <point x="163" y="350" type="line"/>
    </contour>
  </outline>
</glyph>
<glyph name="one.osf" format="2">
  <advance width="560"/>
  <outline>
    <contour>
      <point x="133" y="0" type="line"/>
      <point x="467" y="0" type="line"/>
      <point x="467" y="31" type="line"/>
      <point x="335" y="31" type="line"/>
      <point x="335" y="575" type="line"/>
      <point x="311" y="575" type="line"/>
      <point x="260" y="510"/>
      <point x="200" y="480"/>
      <point x="125" y="451" type="curve"/>
      <point x="136" y="423" type="line"/>
      <point x="210" y="451"/>
      <point x="266" y="479"/>
      <point x="301" y="515" type="curve"/>
      <point x="301" y="31" type="line"/>
      <point x="132" y="31" type="line"/>
    </contour>
  </outline>
</glyph>
<glyph name="registered.salt" format="2">
  <advance width="560"/>
  <outline>
    <contour>
      <point x="280" y="-11" type="curve" smooth="yes"/>
      <point x="412" y="-11"/>
      <point x="517" y="97"/>
      <point x="517" y="261" type="curve" smooth="yes"/>
      <point x="517" y="424"/>
      <point x="413" y="532"/>
      <point x="280" y="532" type="curve" smooth="yes"/>
      <point x="148" y="532"/>
      <point x="43" y="424"/>
      <point x="43" y="260" type="curve" smooth="yes"/>
      <point x="43" y="97"/>
      <point x="147" y="-11"/>
    </contour>
    <contour>
      <point x="280" y="18" type="curve" smooth="yes"/>
      <point x="162" y="18"/>
      <point x="75" y="115"/>
      <point x="75" y="260" type="curve" smooth="yes"/>
      <point x="75" y="404"/>
      <point x="161" y="502"/>
      <point x="280" y="502" type="curve" smooth="yes"/>
      <point x="397" y="502"/>
      <point x="485" y="407"/>
      <point x="485" y="260" type="curve" smooth="yes"/>
      <point x="485" y="116"/>
      <point x="399" y="18"/>
    </contour>
    <contour>
      <point x="191" y="115" type="line"/>
      <point x="223" y="115" type="line"/>
      <point x="223" y="228" type="line"/>
      <point x="291" y="228" type="line"/>
      <point x="310" y="201"/>
      <point x="332" y="163"/>
      <point x="358" y="115" type="curve"/>
      <point x="395" y="115" type="line"/>
      <point x="369" y="166"/>
      <point x="346" y="202"/>
      <point x="324" y="235" type="curve"/>
      <point x="357" y="249"/>
      <point x="376" y="277"/>
      <point x="376" y="316" type="curve" smooth="yes"/>
      <point x="376" y="376"/>
      <point x="337" y="407"/>
      <point x="258" y="407" type="curve" smooth="yes"/>
      <point x="239" y="407"/>
      <point x="209" y="404"/>
      <point x="191" y="400" type="curve"/>
    </contour>
    <contour>
      <point x="223" y="259" type="line"/>
      <point x="223" y="372" type="line"/>
      <point x="234" y="374"/>
      <point x="247" y="375"/>
      <point x="260" y="375" type="curve" smooth="yes"/>
      <point x="309" y="375"/>
      <point x="342" y="356"/>
      <point x="342" y="317" type="curve" smooth="yes"/>
      <point x="342" y="277"/>
      <point x="314" y="259"/>
      <point x="273" y="259" type="curve" smooth="yes"/>
    </contour>
  </outline>
</glyph>
<glyph name="ruble.osf" format="2">
  <advance width="560"/>
  <outline>
    <contour>
      <point x="157" y="0" type="line"/>
      <point x="191" y="0" type="line"/>
      <point x="191" y="102" type="line"/>
      <point x="445" y="102" type="line"/>
      <point x="445" y="132" type="line"/>
      <point x="191" y="132" type="line"/>
      <point x="191" y="243" type="line"/>
      <point x="275" y="243" type="line" smooth="yes"/>
      <point x="440" y="243"/>
      <point x="514" y="292"/>
      <point x="514" y="411" type="curve" smooth="yes"/>
      <point x="514" y="522"/>
      <point x="438" y="579"/>
      <point x="286" y="579" type="curve" smooth="yes"/>
      <point x="232" y="579"/>
      <point x="185" y="573"/>
      <point x="157" y="566" type="curve"/>
      <point x="157" y="273" type="line"/>
      <point x="76" y="273" type="line"/>
      <point x="76" y="243" type="line"/>
      <point x="157" y="243" type="line"/>
      <point x="157" y="132" type="line"/>
      <point x="76" y="132" type="line"/>
      <point x="76" y="102" type="line"/>
      <point x="157" y="102" type="line"/>
    </contour>
    <contour>
      <point x="191" y="273" type="line"/>
      <point x="191" y="541" type="line"/>
      <point x="213" y="545"/>
      <point x="257" y="548"/>
      <point x="287" y="548" type="curve" smooth="yes"/>
      <point x="414" y="548"/>
      <point x="480" y="503"/>
      <point x="480" y="411" type="curve" smooth="yes"/>
      <point x="480" y="295"/>
      <point x="393" y="273"/>
      <point x="272" y="273" type="curve" smooth="yes"/>
    </contour>
  </outline>
</glyph>
<glyph name="rupeeIndian.osf" format="2">
  <advance width="560"/>
  <outline>
    <contour>
      <point x="344" y="0" type="curve"/>
      <point x="383" y="0" type="line"/>
      <point x="342" y="70"/>
      <point x="230" y="197"/>
      <point x="158" y="265" type="curve"/>
      <point x="184" y="265" type="line" smooth="yes"/>
      <point x="328" y="265"/>
      <point x="400" y="312"/>
      <point x="405" y="404" type="curve"/>
      <point x="468" y="404" type="line"/>
      <point x="473" y="434" type="line"/>
      <point x="404" y="434" type="line"/>
      <point x="398" y="488"/>
      <point x="371" y="524"/>
      <point x="324" y="545" type="curve"/>
      <point x="495" y="545" type="line"/>
      <point x="500" y="575" type="line"/>
      <point x="108" y="575" type="line"/>
      <point x="108" y="545" type="line"/>
      <point x="191" y="545" type="line" smooth="yes"/>
      <point x="300" y="545"/>
      <point x="361" y="510"/>
      <point x="369" y="434" type="curve"/>
      <point x="108" y="434" type="line"/>
      <point x="108" y="404" type="line"/>
      <point x="369" y="404" type="line"/>
      <point x="365" y="323"/>
      <point x="300" y="295"/>
      <point x="186" y="295" type="curve" smooth="yes"/>
      <point x="108" y="295" type="line"/>
      <point x="108" y="270" type="line"/>
      <point x="184" y="203"/>
      <point x="266" y="111"/>
    </contour>
  </outline>
</glyph>
<glyph name="six.osf" format="2">
  <advance width="560"/>
  <outline>
    <contour>
      <point x="300" y="-15" type="curve" smooth="yes"/>
      <point x="419" y="-15"/>
      <point x="491" y="66"/>
      <point x="491" y="198" type="curve" smooth="yes"/>
      <point x="491" y="335"/>
      <point x="424" y="412"/>
      <point x="301" y="412" type="curve" smooth="yes"/>
      <point x="245" y="412"/>
      <point x="178" y="395"/>
      <point x="130" y="364" type="curve"/>
      <point x="149" y="549"/>
      <point x="250" y="646"/>
      <point x="453" y="666" type="curve"/>
      <point x="450" y="696" type="line"/>
      <point x="212" y="678"/>
      <point x="90" y="543"/>
      <point x="90" y="274" type="curve" smooth="yes"/>
      <point x="90" y="82"/>
      <point x="161" y="-15"/>
    </contour>
    <contour>
      <point x="299" y="17" type="curve" smooth="yes"/>
      <point x="186" y="17"/>
      <point x="126" y="103"/>
      <point x="126" y="270" type="curve" smooth="yes"/>
      <point x="126" y="310"/>
      <point x="126" y="319"/>
      <point x="127" y="328" type="curve"/>
      <point x="178" y="363"/>
      <point x="239" y="380"/>
      <point x="299" y="380" type="curve" smooth="yes"/>
      <point x="400" y="380"/>
      <point x="455" y="316"/>
      <point x="455" y="196" type="curve" smooth="yes"/>
      <point x="455" y="81"/>
      <point x="399" y="17"/>
    </contour>
  </outline>
</glyph>
<glyph name="three.numr" format="2">
  <advance width="560"/>
  <outline>
    <contour>
      <point x="266" y="314" type="curve" smooth="yes"/>
      <point x="347" y="314"/>
      <point x="401" y="358"/>
      <point x="401" y="422" type="curve" smooth="yes"/>
      <point x="401" y="473"/>
      <point x="372" y="510"/>
      <point x="308" y="529" type="curve"/>
      <point x="355" y="542"/>
      <point x="379" y="575"/>
      <point x="379" y="618" type="curve" smooth="yes"/>
      <point x="379" y="674"/>
      <point x="337" y="709"/>
      <point x="272" y="709" type="curve" smooth="yes"/>
      <point x="233" y="709"/>
      <point x="199" y="699"/>
      <point x="168" y="678" type="curve"/>
      <point x="180" y="654" type="line"/>
      <point x="205" y="673"/>
      <point x="238" y="682"/>
      <point x="270" y="682" type="curve" smooth="yes"/>
      <point x="318" y="682"/>
      <point x="347" y="659"/>
      <point x="347" y="618" type="curve" smooth="yes"/>
      <point x="347" y="567"/>
      <point x="315" y="541"/>
      <point x="243" y="541" type="curve" smooth="yes"/>
      <point x="230" y="541" type="line"/>
      <point x="230" y="514" type="line"/>
      <point x="241" y="514" type="line" smooth="yes"/>
      <point x="323" y="514"/>
      <point x="369" y="481"/>
      <point x="369" y="424" type="curve" smooth="yes"/>
      <point x="369" y="369"/>
      <point x="333" y="341"/>
      <point x="261" y="341" type="curve" smooth="yes"/>
      <point x="232" y="341"/>
      <point x="202" y="348"/>
      <point x="172" y="361" type="curve"/>
      <point x="163" y="334" type="line"/>
      <point x="194" y="319"/>
      <point x="230" y="314"/>
    </contour>
  </outline>
</glyph>
<glyph name="three.osf" format="2">
  <advance width="560"/>
  <outline>
    <contour>
      <point x="235" y="-137" type="curve" smooth="yes"/>
      <point x="392" y="-137"/>
      <point x="471" y="-57"/>
      <point x="471" y="66" type="curve" smooth="yes"/>
      <point x="471" y="165"/>
      <point x="421" y="228"/>
      <point x="309" y="252" type="curve"/>
      <point x="392" y="271"/>
      <point x="436" y="330"/>
      <point x="436" y="414" type="curve" smooth="yes"/>
      <point x="436" y="523"/>
      <point x="368" y="584"/>
      <point x="249" y="584" type="curve" smooth="yes"/>
      <point x="189" y="584"/>
      <point x="135" y="566"/>
      <point x="92" y="534" type="curve"/>
      <point x="108" y="506" type="line"/>
      <point x="151" y="537"/>
      <point x="199" y="552"/>
      <point x="246" y="552" type="curve" smooth="yes"/>
      <point x="345" y="552"/>
      <point x="400" y="501"/>
      <point x="400" y="409" type="curve" smooth="yes"/>
      <point x="400" y="317"/>
      <point x="335" y="264"/>
      <point x="222" y="264" type="curve" smooth="yes"/>
      <point x="211" y="264" type="line"/>
      <point x="211" y="234" type="line"/>
      <point x="219" y="234" type="line"/>
      <point x="363" y="232"/>
      <point x="435" y="175"/>
      <point x="435" y="62" type="curve" smooth="yes"/>
      <point x="435" y="-57"/>
      <point x="336" y="-105"/>
      <point x="236" y="-105" type="curve" smooth="yes"/>
      <point x="180" y="-105"/>
      <point x="126" y="-91"/>
      <point x="83" y="-67" type="curve"/>
      <point x="73" y="-100" type="line"/>
      <point x="120" y="-124"/>
      <point x="178" y="-137"/>
    </contour>
  </outline>
</glyph>
<glyph name="tugrik.osf" format="2">
  <advance width="560"/>
  <outline>
    <contour>
      <point x="265" y="0" type="line"/>
      <point x="299" y="0" type="line"/>
      <point x="299" y="168" type="line"/>
      <point x="438" y="231" type="line"/>
      <point x="427" y="255" type="line"/>
      <point x="299" y="198" type="line"/>
      <point x="299" y="319" type="line"/>
      <point x="438" y="382" type="line"/>
      <point x="427" y="406" type="line"/>
      <point x="299" y="349" type="line"/>
      <point x="299" y="544" type="line"/>
      <point x="465" y="544" type="line"/>
      <point x="465" y="575" type="line"/>
      <point x="99" y="575" type="line"/>
      <point x="99" y="544" type="line"/>
      <point x="265" y="544" type="line"/>
      <point x="265" y="336" type="line"/>
      <point x="129" y="275" type="line"/>
      <point x="141" y="251" type="line"/>
      <point x="265" y="307" type="line"/>
      <point x="265" y="185" type="line"/>
      <point x="129" y="124" type="line"/>
      <point x="141" y="99" type="line"/>
      <point x="265" y="155" type="line"/>
    </contour>
  </outline>
</glyph>
<glyph name="two.osf" format="2">
  <advance width="560"/>
  <outline>
    <contour>
      <point x="136" y="0" type="curve"/>
      <point x="467" y="0" type="line"/>
      <point x="467" y="30" type="line"/>
      <point x="170" y="30" type="line"/>
      <point x="170" y="112"/>
      <point x="242" y="183"/>
      <point x="311" y="236" type="curve" smooth="yes"/>
      <point x="411" y="313"/>
      <point x="445" y="377"/>
      <point x="445" y="442" type="curve" smooth="yes"/>
      <point x="445" y="529"/>
      <point x="379" y="583"/>
      <point x="276" y="583" type="curve" smooth="yes"/>
      <point x="220" y="583"/>
      <point x="154" y="555"/>
      <point x="124" y="523" type="curve"/>
      <point x="142" y="499" type="line"/>
      <point x="179" y="533"/>
      <point x="230" y="553"/>
      <point x="278" y="553" type="curve" smooth="yes"/>
      <point x="357" y="553"/>
      <point x="410" y="514"/>
      <point x="410" y="440" type="curve" smooth="yes"/>
      <point x="410" y="383"/>
      <point x="380" y="330"/>
      <point x="289" y="258" type="curve" smooth="yes"/>
      <point x="213" y="198"/>
      <point x="136" y="124"/>
      <point x="136" y="19" type="curve" smooth="yes"/>
      <point x="136" y="13"/>
      <point x="136" y="9"/>
    </contour>
  </outline>
</glyph>
